<?xml version="1.0" encoding="UTF-8"?>
<svg id="Layer_2" data-name="Layer 2" xmlns="http://www.w3.org/2000/svg" viewBox="0 0 648 864">
  <defs>
    <style>
      .cls-1 {
        fill: #515254;
      }
    </style>
  </defs>
  <path class="cls-1" d="M-21.03,621.84H2.68v-5.09h4.01v-25.27h3.86v-8.23h3.58v-10.14h1.57v-4.55h1.72v3.38h1.29v-3.97h2.43v3.38l1.07,1.1v1.54h1.36v7.05h1.43v1.62h2.15v2.79h4.87v-1.76h13.45v1.47h2.15v-1.76h1.57v-42.76h12.17v-4.11h8.59v-2.2h2.58v-2.5h9.88v3.53h19.46v4.85h11.31v25.12s5.44.44,4.58,9.4c0,0,2.86-.44,2.15,9.99h7.01l7.66-7.86h6.94l1.57,4.78v-79.64h4.15v-9.84l-2-2.5s-19.94-4.58,4.11-6.26c2.26-.16,4.52-.18,6.78-.09,10.3.41,40.02,2.05,20.88,7.09l-.14,10.87h3.29v32.18h11.02v21.16h3.58v12.05h5.01v-5.14h21.9v4.85h23.62v59.21h4.01v-59.95h2.43v-17.63h2.15v-13.08h2.58v-2.79h15.91v1.32h8.85v-12.2h3.29v-10.43h2v-13.08h1.14v-8.37h2.29v-6.17h2.15v-5h26.33v6.17h2.43v5.88h2.58v7.05h1.57v13.96h1.43v9.99h2.72v45.69h37.07v-28.65h1.72v26.74h8.73v-77.43h3.58v-3.23h15.74v-27.33h1.57v9.84h1.57v17.19h1.86v-4.7h8.16v-4.85h1.29v8.73h4.13v-27.93h1.01v27.78h3.28v-5.53h1.16v5.64h2.67v-4.71h1.41v4.6h6.06v1h3.78v6.97h3.2v3.98l22.3.95v63.83l10.2-6.29h12.93l7.38,4.89h8.89v3.83h7.78l21.11,1.06v64.63h1.53v-2.62h4.96v1.75h3.83v-2.69h12.89v2.11h1.56v1.45h4.6v-4.36h6.38v-21.6h3.19v-11.56h2.9v-5.31h1.77v-5.38h34.29v2.98h2.55v1.89h2.05v5.82h2.34v21.09h1.56v-43.78h39.39l5.59,311.69-777.18-18.9,97.06-238.66Z"/>
</svg>