<?xml version="1.0" encoding="UTF-8"?>
<svg id="Layer_1" data-name="Layer 1" xmlns="http://www.w3.org/2000/svg" viewBox="0 0 2834.97 2126.23">
  <path d="M1265.48,979.88c8.75-24.42,9.38-50.54,11.23-76.14,1.89-26.23,5.47-52.32,10.47-78.14,10.02-51.75,25.56-102.3,44.25-151.54,4.66-12.28,9.52-24.48,14.54-36.61,4.64-11.2,9.03-22.69,14.76-33.39,5.05-9.44,11.98-18.55,22.64-21.83,11.21-3.45,23.46-.61,33.36,5.21,10.41,6.11,18.7,15.2,26.18,24.54,7.61,9.51,14.48,19.78,19.58,30.87,9.82,21.36,10.12,44.61-1.93,65.1-11.11,18.89-29.13,32.98-47.88,43.75-11.04,6.34-22.69,11.69-35.06,14.84-13.31,3.39-27.01,3.61-40.64,2.69-7.01-.47-14-1.23-20.98-1.99.37,2.72.74,5.43,1.1,8.15,43.34-6.14,89.33-12.28,131.13,4.59,18.56,7.49,35.57,19.16,49.21,33.81,6.71,7.21,12.57,15.42,15.21,25.02s1.94,20.33-.82,30.08c-6.46,22.78-23.58,40.21-39.67,56.71-3.73,3.83,2.13,9.7,5.87,5.87,15.4-15.79,31.12-32.16,39.32-53.02,8.08-20.55,6.93-43.12-6.31-61.21-26.35-35.97-70.84-54.17-114.31-56.25-27.42-1.31-54.76,2.56-81.83,6.4-5,.71-3.13,7.69,1.1,8.15,14.45,1.57,29.02,3.16,43.57,2.17,13.71-.93,26.82-4.42,39.41-9.84,21.87-9.41,43.24-23.47,58.71-41.76,15.08-17.83,23.34-39.77,19.66-63.22-3.9-24.83-19.49-47.57-36.18-65.73-15.74-17.12-40.09-31.51-63.7-21.57-10.5,4.42-17.91,13.4-23.3,23.17-6.04,10.94-10.52,22.82-15.31,34.34-21.53,51.75-40.12,104.86-53.04,159.45-6.4,27.06-11.37,54.45-14.64,82.07-3.27,27.65-2.73,56-8.25,83.34-1.35,6.7-3.15,13.27-5.45,19.7-1.8,5.04,6.21,7.21,8,2.21h0Z"/>
  <path d="M1470.3,925.53c-29.55,26.44-60.81,50.92-93.63,73.17-7.72,5.23-15.89,11.99-25.07,14.34-3.77.97-8.05.98-11.62-.77-4.07-2-5.79-6.07-6.9-10.22-2.54-9.52-4.01-19.42-5.94-29.07-2.04-10.19-4.09-20.37-6.13-30.56-4.62-23.05-9.25-46.1-13.87-69.16-1.05-5.23-9.05-3.02-8,2.21,4.46,22.25,8.92,44.5,13.39,66.74,2.2,10.99,4.41,21.98,6.61,32.97,2.08,10.35,3.25,21.5,6.66,31.5,2.75,8.08,8.58,13.78,17.21,15.01,9.39,1.33,18-2.83,25.72-7.75,17.78-11.34,34.96-23.76,51.73-36.53,19.17-14.59,37.76-29.94,55.71-46.01,3.99-3.57-1.9-9.42-5.87-5.87h0Z"/>
  <path d="M1466,922.96c11.35-37.41,23.56-74.56,36.66-111.4,12.41-34.91,25.67-69.66,43.31-102.32,15.55-28.79,35.26-59.36,66.73-72.41,15.04-6.24,32.17-8.17,47.76-2.8,14.42,4.97,26.07,15.83,35,27.9,9.69,13.11,17.09,27.95,23.51,42.88,7.22,16.79,12.78,34.38,16.16,52.35,6.3,33.52,3.67,68.07-6.49,100.56-19.84,63.43-66.87,114.13-124.56,145.69-14.21,7.77-29.03,14.42-44.28,19.9-16.65,5.98-34.91,11.46-52.7,7.68-7.87-1.67-15.49-4.98-21.41-10.53-6.21-5.83-10.06-13.6-13.27-21.37-6.65-16.11-13.49-33.42-12.67-51.15.39-8.47,2.71-16.59,7.33-23.73,2.91-4.5-4.27-8.66-7.17-4.19-9.88,15.26-10.04,34.14-5.87,51.31,2.34,9.6,5.91,18.88,9.59,28.03,3.18,7.93,6.66,15.77,12.07,22.47,24.7,30.64,69.09,16.83,99.45,4.42,63.64-26.02,119.79-72.49,149.4-135.43,15.04-31.97,23.3-67.29,22.25-102.7-1.13-38.02-13.11-75.23-30.77-108.7-14.8-28.05-37.49-55.13-71.52-56.79-36.06-1.76-65.94,22.43-85.92,50.14-22.3,30.94-37.71,66.97-51.36,102.38-14.71,38.17-27.74,77.03-40.09,116.02-3.12,9.84-6.17,19.69-9.16,29.56-1.55,5.12,6.46,7.31,8,2.21h0Z"/>
  <path d="M1899.41,794.91c8.45-3.8,16.95-7.86,24.8-12.81,6.75-4.25,12.38-9.89,13.47-18.11,1.18-8.88-2.07-18.35-4.76-26.7-2.92-9.07-6.58-17.94-10.9-26.43-3.42-6.72-7.63-13.84-14.45-17.59-8.06-4.44-17.96-2.84-26.69-1.92-18.87,1.98-37.52,5.87-55.56,11.74-17.66,5.75-35.13,13.18-51.05,22.78-14.73,8.89-28.21,20.77-35.03,36.92-3.28,7.76-5.1,16.52-3.75,24.93,1.39,8.65,6.92,15.09,12.94,21.07,12.34,12.24,26.09,23,40.25,33.06,32.44,23.04,67.59,42.51,96.85,69.77,3.9,3.64,9.79-2.22,5.87-5.87-23.3-21.72-50.32-38.71-76.76-56.23-13.16-8.72-26.25-17.6-38.61-27.44-6.12-4.87-12.06-9.95-17.74-15.32s-12.6-11.21-14.39-19.2c-3.57-15.9,7.27-32.46,18.4-42.68,12.06-11.07,27.4-18.63,42.29-25.11,15.79-6.87,32.31-12.11,49.14-15.75,8.72-1.88,17.54-3.34,26.42-4.29,7.69-.83,18.04-3.14,24.81,1.7s10.56,14.48,13.85,21.92c3.98,8.98,7.15,18.39,9.45,27.94,1.1,4.54,2.26,9.7.64,14.27-1.35,3.81-4.53,6.52-7.8,8.69-8.05,5.35-17.07,9.54-25.87,13.5-4.86,2.19-.65,9.34,4.19,7.17h0Z"/>
  <path d="M1886.58,911.96c18.69,22.56,26.02,53.89,20.34,82.54-6.4,32.25-29.42,55.48-53.97,75.59-13.01,10.65-26.49,20.91-41.33,28.89-15.66,8.42-32.46,13.26-50.2,14.55-9.04.66-18.18.72-27.22.15-4.55-.29-9.07-.78-13.54-1.66-3.98-.79-9.96-1.52-12.97-4.48-2.68-2.63-3.12-7.16-3.9-10.64-1.07-4.74-2.13-9.48-3.18-14.22-2.05-9.24-4.05-18.49-5.92-27.77-8.43-41.8-14.21-84.44-10.04-127.1.52-5.31-7.78-5.28-8.3,0-3.97,40.65,1.05,81.43,8.76,121.35,1.95,10.09,4.07,20.15,6.27,30.19,1.04,4.75,2.1,9.49,3.16,14.24,1.04,4.62,1.75,9.5,3.53,13.91,3.46,8.58,12.02,10.88,20.38,12.53,9.53,1.88,19.29,2.34,28.98,2.31,19.17-.06,38.12-2.7,55.87-10.19,16.55-6.99,31.39-17.17,45.51-28.16,26.69-20.78,53.96-44.65,63.9-78.22,10.08-34.06,2.4-72.33-20.25-99.67-3.41-4.12-9.25,1.78-5.87,5.87h0Z"/>
  <path d="M1904.02,1111.81c-47.68-48.2-33.21-126.22-11.33-183.02,22.2-57.64,59.73-109.55,104.34-151.97,11.58-11.01,24.01-21.24,38.12-28.86,13.76-7.43,30.37-13.63,45.55-6.68,30.88,14.14,32.2,53.02,30.23,82.12-4.3,63.53-27.86,124.23-59.88,178.74-16.04,27.3-34.1,53.8-54.19,78.28-18.06,22-43.95,44.75-74.76,37.28-6.43-1.56-12.3-4.51-17.2-8.97-3.94-3.59-9.83,2.26-5.87,5.87,23.3,21.2,57.88,13.09,80.42-4.7,13.02-10.28,23.4-23.39,33.41-36.5,10.35-13.54,20.25-27.43,29.59-41.68,36.91-56.35,65.63-119.41,74.6-186.64,4.23-31.69,7.8-70.75-14.27-96.99-9.44-11.22-23.41-18.89-38.33-18.2-16.8.78-33.17,9.67-46.71,19.06s-26.29,21.3-38.07,33.4c-11.53,11.83-22.48,24.23-32.75,37.17-20.43,25.75-38.27,53.59-52.17,83.41-14.06,30.18-24.4,62.38-28.75,95.46-4.5,34.27-1.28,70.7,17.38,100.6,4.21,6.75,9.18,13.02,14.78,18.68,3.76,3.8,9.63-2.07,5.87-5.87h0Z"/>
  <path d="M1969.04,969.55c22.65,55.37,41.02,112.46,54.82,170.67,3.91,16.52,7.45,33.13,10.64,49.8,1,5.24,9,3.02,8-2.21-11.23-58.76-26.98-116.62-47.19-172.93-5.73-15.98-11.83-31.83-18.26-47.54-2-4.88-10.03-2.74-8,2.21h0Z"/>
  <path d="M2164.34,842.71c26.7-3.27,53.58-4.7,80.48-4.3,5.34.08,5.35-8.22,0-8.3-26.9-.4-53.78,1.03-80.48,4.3-5.23.64-5.3,8.95,0,8.3h0Z"/>
  <path d="M2132.7,955.93c20.21,4.04,40.29,8.68,60.22,13.92,5.17,1.36,7.38-6.65,2.21-8-19.93-5.24-40.01-9.88-60.22-13.92-5.22-1.04-7.45,6.96-2.21,8h0Z"/>
</svg>