<?xml version="1.0" encoding="UTF-8"?>
<svg xmlns="http://www.w3.org/2000/svg" viewBox="0 0 833.2 5639.26">
  <defs>
    <style>
      .cls-1 {
        fill: #f4f7f9;
      }

      .cls-2 {
        fill: #595959;
      }

      .cls-3 {
        fill: #e5cc61;
      }

      .cls-4 {
        fill: #649bbc;
      }

      .cls-5 {
        fill: none;
        stroke: #000;
        stroke-linecap: round;
        stroke-linejoin: round;
      }

      .cls-6 {
        fill: #0c0b0b;
      }

      .cls-7 {
        fill: #fff;
      }

      .cls-8 {
        fill: #f9f9f9;
      }

      .cls-9 {
        fill: #ce763a;
      }

      .cls-10 {
        fill: #313435;
      }

      .cls-11 {
        fill: #ebf2f7;
      }

      .cls-12 {
        fill: #878787;
      }

      .cls-13 {
        fill: #f7f7f7;
      }

      .cls-14 {
        fill: #71acd8;
      }
    </style>
  </defs>
  <g id="Layer_2" data-name="Layer 2">
    <path class="cls-5" d="M737.06,172.49c1.04-1.13,2.09-1.58,2.96-2.84"/>
    <path class="cls-5" d="M728.15,168.41c.25-.61.54-1.66.81-1.99s.61-.59.92-.89c.56-.55,1-1.22,1.27-1.96"/>
    <path class="cls-5" d="M712.56,161.82c.11-1.96,1.03-3.77,1.94-5.51"/>
    <path class="cls-5" d="M698.09,160.21c-.08-1.52-.27-3.03-.59-4.52"/>
  </g>
  <g id="Layer_3" data-name="Layer 3">
    <g>
      <path class="cls-12" d="M675.34,520.88c-3.75,1.72-7.23,3.98-10.81,6.05-1.69.98-3.41,1.91-5.18,2.73-.96.45-1.95.86-2.83,1.45-.65.43-1.23.96-1.81,1.49-.14.14-.3.28-.39.46-.11.23-.12.49-.15.74-.04.33-.12.65-.21.98-.05.23-.11.46-.16.7-.1.56-.11,1.17.17,1.67.22.4.66.69,1.1.69l.55.15,16.83-1.02c5.11-.31,10.23-.62,15.35-.93l.2-.34c0-.71.01-1.41,0-2.11.01-2.23.01-4.45-.01-6.67-.01-1.3-.04-2.61-.36-3.87-.23-.87-.64-1.75-1.41-2.21.14-.16.23-.37.32-.57.24-.53.48-1.05.71-1.58l.81.36c3.82-.11,7.64-.06,11.45.17l.46-.09c.79,3.87,1.62,7.73,2.48,11.58.62.05,1.23.1,1.85.15l-.02.23c.26,1.57.52,3.15.78,4.72h0c.13.77.25,1.52.38,2.28l-.48.25c-.25.09-.5.18-.74.29-2.33.95-4.43,2.41-6.58,3.73-2.66,1.63-5.44,3.05-8.2,4.53-3.33,1.79-6.63,3.63-9.59,5.96h0c-2.55,2.08-3.37,2.21-3.77,3.53-.27.9-.27,1.85-.11,2.79.07.42.17.85.29,1.26.2.68.5,1.41,1.14,1.73.35.18.76.2,1.16.22,15.07.67,30.19.04,45.14-1.89l-.04-.29c-.12-1.2-.17-2.41-.18-3.63-.08-5.25.51-10.57-1.02-15.56-.15-.49-.33-.99-.69-1.36-.36-.36-.94-.55-1.39-.31l-.3-.06c.07-.13.11-.27.16-.41.54-1.71,1.08-3.43,1.62-5.14h0c.28.05.55.11.83.18l.12-.51c-.19-1.3.28-2.6.75-3.82.94-2.47,1.9-4.94,2.88-7.41l.13.05c14.23-.46,28.5-.91,42.66.51,3.29.33,6.57.77,9.86,1.13-.63.24-1.22.67-1.76,1.09-.58.44-1.16.89-1.73,1.33-.54.41-1.1.86-1.32,1.49l.15.3c-.17.21-.27.5-.35.77-.37,1.24-.74,2.48-1.11,3.71-1.74,5.84-3.48,11.68-5.23,17.51-.09.29-.17.59-.26.89-.8,2.72-1.52,5.51-1.33,8.32l-.07.19c4.67,2.25,10.14,2.76,15.13,1.39l-.1-.36c.86-.2,1.59-.88,2.03-1.68.49-.9.66-1.95.82-2.97.2-1.36.39-2.73.56-4.1.63-4.99,1.06-10.02,1.48-15.04.05-.6.1-1.2.14-1.8l.43.03c.32.96.77,1.88,1.34,2.71.67-.41,1.32-.86,1.93-1.37l.06.08c-.34.27-.64.59-.88.95-.65.97-.93,2.16-1.1,3.32-.21,1.44-.29,2.91-.21,4.36,0,.12,0,.23.02.35.95,1.1,1.89,2.21,2.76,3.37.37.47.72.96,1.06,1.46,1.51,2.21,2.7,4.63,3.89,7.03.81,1.64,1.63,3.29,2.44,4.93.57,1.15,1.13,2.29,1.7,3.44l.68.45c.58-.02,1.13-.27,1.64-.53,2.86-1.44,5.55-3.2,8.01-5.24v-.24c.51-.68,1.02-1.36,1.53-2.05.26-.33.51-.68.63-1.08.04-.15.06-.31.06-.46l.98-.03c.33,5.96.8,11.91,1.53,17.83.92,7.52,2.24,15.06,1.89,22.62h-.03c-79.34-7.66-159.1-11.11-238.8-10.34-.55-21.65-4.53-43.16-4.31-64.82,34.04-2.32,68.15-3.45,102.27-3.38l.81-.02c.01.07.01.13.01.2.02.58.11,1.21.34,1.74l-.22.1c-.42.18-.84.37-1.26.57Z"/>
      <path class="cls-12" d="M801.47,524.83v-.28c2.8-.1,5.59-.2,8.38-.3.62-.02,1.31-.02,1.78.39.51.45.57,1.22.58,1.91.2,9.94.35,19.9.9,29.83l-.98.03c0-.98-.79-1.88-1.53-2.61-.73-.71-1.45-1.42-2.16-2.14-2.8-2.8-5.53-5.67-8.18-8.61-1.64-1.8-3.24-3.62-4.81-5.47l-.1.04s-.01-.03-.02-.04c-.04-.06-.09-.1-.13-.15-.92-.88-1.97-1.77-3.24-1.82-.75-.03-1.47.27-2.06.74l-.06-.08c.21-.17.42-.35.63-.54.07-.06.15-.14.17-.24.02-.12-.05-.23-.1-.33-.29-.56-.3-1.35-.86-1.62-.3-.15-.65-.08-.98-.01-.7.14-1.4.29-2.11.43l-.4-.02c.06-1.26.03-2.52-.17-3.76-.04-.29-.11-.59-.3-.81-.19-.21-.48-.3-.75-.39l.75-.23c-.23-2.07-1.9-3.73-3.81-4.61.06,0,.11,0,.17.02.74.07,1.48.13,2.22.18,3.44.24,6.9.31,10.36.37l6.81.12Z"/>
      <path class="cls-11" d="M812.13,556.41c0,.15-.02.31-.06.46-.12.4-.37.75-.63,1.08-.51.69-1.02,1.37-1.54,2.05v.24c-2.45,2.04-5.14,3.8-8,5.24-.51.26-1.06.51-1.64.53l-.68-.45c-.57-1.15-1.13-2.29-1.7-3.44l.43-.21c4.24-1.88,7.72-5.41,9.55-9.68l.58-.57c.71.72,1.43,1.43,2.16,2.14.74.73,1.53,1.63,1.53,2.61Z"/>
      <path class="cls-10" d="M808.44,551.66l-.58.57c-1.83,4.27-5.31,7.8-9.55,9.68l-.43.21c-.81-1.64-1.63-3.29-2.44-4.93-1.19-2.4-2.38-4.82-3.89-7.03-.34-.5-.69-.99-1.06-1.46l.66-.51c.94-.25,1.74-.83,2.55-1.37,1.83-1.23,3.78-2.27,5.82-3.1l.74-.67c2.65,2.94,5.38,5.81,8.18,8.61Z"/>
      <path class="cls-11" d="M800.26,543.05l-.74.67c-2.04.83-3.99,1.87-5.82,3.1-.81.54-1.61,1.12-2.55,1.37l-.66.51c-.87-1.16-1.81-2.27-2.76-3.37-.01-.12-.02-.23-.02-.35h.03c2.1-2.57,5.32-4.05,7.39-6.65.16-.21.31-.48.22-.71l.1-.04c1.57,1.85,3.17,3.67,4.81,5.47Z"/>
      <path class="cls-11" d="M795.35,537.62c.09.23-.06.5-.22.71-2.07,2.6-5.29,4.08-7.39,6.65h-.03c-.08-1.45,0-2.92.21-4.36.17-1.16.45-2.35,1.1-3.32.24-.36.54-.68.88-.95.59-.47,1.31-.77,2.06-.74,1.27.05,2.32.94,3.24,1.82.04.05.09.09.13.15.01.01.01.03.02.04Z"/>
      <path class="cls-1" d="M790.54,535.16c.05.1.12.21.1.33-.02.1-.1.18-.17.24-.21.19-.42.37-.63.54-.61.51-1.26.96-1.93,1.37-.57-.83-1.02-1.75-1.34-2.71l-.43-.03c.02-.27.04-.54.05-.81v-.15l.4.02c.71-.14,1.41-.29,2.11-.43.33-.07.68-.14.98.01.56.27.57,1.06.86,1.62Z"/>
      <path class="cls-11" d="M786.02,530.18c.2,1.24.23,2.5.17,3.76v.15l-.36-.02c-.14.15-.37-.05-.52-.2-.28-.26-.67-.35-1.04-.43-3.7-.8-7.51-1.1-11.3-.89.37-1.23.74-2.47,1.11-3.71.08-.27.18-.56.35-.77.06-.07.12-.14.2-.19.26-.17.58-.18.88-.19,3.19-.06,6.39.38,9.46,1.29.27.09.56.18.75.39.19.22.26.52.3.81Z"/>
      <path class="cls-10" d="M785.83,534.07l.36.02c-.01.27-.03.54-.05.81-.04.6-.09,1.2-.14,1.8-.42,5.02-.85,10.05-1.48,15.04l-.57-.07c-5.36.9-10.81-.46-16.24-.65l-.23-.07c.09-.3.17-.6.26-.89,1.75-5.83,3.49-11.67,5.23-17.51,3.79-.21,7.6.09,11.3.89.37.08.76.17,1.04.43.15.15.38.35.52.2Z"/>
      <path class="cls-11" d="M785.72,528.75l-.75.23c-3.07-.91-6.27-1.35-9.46-1.29-.3.01-.62.02-.88.19-.08.05-.14.12-.2.19l-.15-.3c.22-.63.78-1.08,1.32-1.49.57-.44,1.15-.89,1.73-1.33.54-.42,1.13-.85,1.76-1.09.94.1,1.88.2,2.82.28,1.91.88,3.58,2.54,3.81,4.61Z"/>
      <path class="cls-11" d="M781.11,560.49l.1.36c-4.99,1.37-10.46.86-15.13-1.39l.07-.19c-.19-2.81.53-5.6,1.33-8.32l.23.07c5.43.19,10.88,1.55,16.24.65l.57.07c-.17,1.37-.36,2.74-.56,4.1-.16,1.02-.33,2.07-.82,2.97-.44.8-1.17,1.48-2.03,1.68Z"/>
      <path class="cls-1" d="M782.33,520.55c.12.25.1.54.08.81-.07.84-.17,1.69-.3,2.53l-.03.27c-.06-.01-.11-.01-.17-.02-.11-.05-.23-.1-.34-.15-.46-.19-.94-.34-1.44-.35l-.79-.23c-.01-.77-.01-1.53,0-2.3,0-.25.01-.52.13-.74.08-.15.2-.26.33-.36.29-.23.64-.42,1.01-.4.31.02.59.17.85.32.26.16.54.34.67.62Z"/>
      <path class="cls-11" d="M781.57,523.99c.11.05.23.1.34.15-.94-.08-1.88-.18-2.82-.28.33-.14.68-.22,1.04-.22.5,0,.98.16,1.44.35Z"/>
      <path class="cls-11" d="M771.34,497.52c.11,2.43.12,4.86.1,7.29-.02,1.22-.04,2.43-.06,3.65s-.35,1.2-1.54,1.42c-2.84.53-5.7.91-8.58,1.15l-.05-.52c.07-7.94-.05-15.9-.37-23.84,2.64.04,5.28.17,7.91.4l.39.26c1.1.75,1.42,2.2,1.61,3.52.31,2.21.49,4.44.59,6.67Z"/>
      <path class="cls-9" d="M763.86,411.28c-.11.01-.21.01-.32.01-5.98.19-11.79-2.43-17.79-2.45l-1.03-.02c.08-2.14.5-4.32.51-6.48.03-2.81-.63-5.59-.68-8.4-.05-2.42.37-4.82.74-7.21l.58.09c.97.16,1.94.31,2.91.47,2.55.41,5.11.81,7.68.68l1.27-.34c.81,3.07,1.64,6.13,2.47,9.19.77,2.86,1.54,5.72,2.32,8.58.53,1.94,1.05,3.89,1.34,5.88Z"/>
      <path class="cls-14" d="M763.54,411.29v.14c-.08,2.84-1.03,5.58-1.96,8.26-4.11,11.81-7.85,22.56-11.96,34.37l-.19.04c-.34-1.79-.71-3.58-1.1-5.37-.44-2.02-.91-4.05-1.18-6.1-.24-1.84-.31-3.7-.4-5.55-.39-8.17-1.08-16.32-2.06-24.44l.33-.21c-.3-1.19-.35-2.39-.3-3.61l1.03.02c6,.02,11.81,2.64,17.79,2.45Z"/>
      <path class="cls-10" d="M761.21,510.51l.05.52c-1.97.17-3.94.26-5.91.29l-.82-.07c.64-1.63,1-3.4,1.16-5.15.27-3.12-.08-6.26-.43-9.37-.37-3.31-.78-6.6-1.21-9.9l.88-.11c1.97-.07,3.94-.09,5.91-.05.32,7.94.44,15.9.37,23.84Z"/>
      <path class="cls-9" d="M758.47,365.14c-1.73-.18-3.46-.35-5.19-.53-2.34-.24-4.67-.48-7-.72-2.3-.24-4.6-.48-6.9-.71-2.28-.23-4.56-.47-6.84-.62-3.49-.24-6.97-.31-10.44.08-.02-.52-.03-1.07-.05-1.63-.18-6.19-.25-14.57-.52-23.18-.02-.85-.05-1.71-.08-2.57l.67-.02c7.87,1.2,15.79,2.1,23.73,2.7l.17-.07c3.55,8.69,7.72,17.84,12.45,27.27Z"/>
      <path d="M757.73,387.63l-1.27.34c-2.57.13-5.13-.27-7.68-.68-.97-.16-1.94-.31-2.91-.47l-.58-.09c.03-.19.06-.39.09-.58,1.07-7.19,1.35-14.5.85-21.76l.05-.5c2.33.24,4.66.48,7,.72l-.12,1.14c-.33,1.86.07,3.76.5,5.59,1.25,5.46,2.64,10.88,4.07,16.29Z"/>
      <path class="cls-3" d="M732.47,414.47c-.19-3.03-.09-6.05.15-9.09.51-6.73,1.67-13.47,1.91-20.24.02-.66.04-1.33.04-1.99.03-6.74-1.02-13.43-2.07-20.09l.04-.5c2.28.15,4.56.39,6.84.62,2.3.23,4.6.47,6.9.71l-.05.5c.5,7.26.22,14.57-.85,21.76-.03.19-.06.39-.09.58-.37,2.39-.79,4.79-.74,7.21.05,2.81.71,5.59.68,8.4-.01,2.16-.43,4.34-.51,6.48-.05,1.22,0,2.42.3,3.61l-.33.21c.98,8.12,1.67,16.27,2.06,24.44.09,1.85.16,3.71.4,5.55.27,2.05.74,4.08,1.18,6.1.39,1.79.76,3.58,1.1,5.37.76,3.89,1.42,7.8,1.97,11.72.79,7.02,1.76,14.01,2.65,21.01.43,3.3.84,6.59,1.21,9.9.35,3.11.7,6.25.43,9.37-.16,1.75-.52,3.52-1.16,5.15-.51,1.27-1.17,2.47-2.04,3.53-.79.97-1.82,1.85-3.06,1.99-.86.09-1.71-.18-2.51-.5-3.36-1.34-6.25-3.48-8.67-6.14-3.7-4.05-6.29-9.27-7.81-14.59-.39-1.37-.73-2.78-.79-4.21-.07-1.46.15-2.89.49-4.31.37-1.6.9-3.18,1.34-4.77,1.16-4.21,1.92-8.6,1.85-12.96-.93-18.25-1.24-36.54-.94-54.82h.08Z"/>
      <path class="cls-3" d="M752.8,258.33l.21.09c-5.51,14.08-13.23,27.82-25.25,36.97l-.25-.03c-.38.14-.75.28-1.13.41-8.1,2.8-16.86,3.55-25.36,2.41-2.07-.26-4.13-.65-6.16-1.14-10.74-2.61-20.69-8.18-28.88-15.62-5.21-4.73-9.72-10.18-14.06-15.73l-.2-.09c-5.54-8.98-9.25-19.09-10.83-29.53-.02-.07-.03-.15-.04-.22l.66-.11c8.25-.23,15.21-6.06,20.79-12.15,4.63-5.05,8.94-10.75,10.37-17.45.72-3.38.67-6.88.62-10.34-1.13-6.04-2.4-7.04-4.46-10.58-2.01-3.45-4.86-6.53-8.51-8.13,6.25-4.84,12.54-9.71,19.55-13.37,7.02-3.67,14.88-6.1,22.79-5.69,8.69.44,16.82,4.23,24.69,7.95,3.78,1.78,7.6,3.59,10.78,6.29,6.41,5.43,9.47,13.73,12.27,21.65l-.16.54c1.35,2.87,2.7,5.75,3.85,8.7,6.87,17.59,6.39,37.93-1.29,55.17ZM690.83,232.11h.03c4.94,4.91,10.7,9.22,17.36,11.29s14.33,1.64,20.09-2.29c5.92-4.04,9.07-11.11,10.63-18.1,1.83-8.18,1.89-16.75.18-24.95-1.23-5.85-3.5-11.73-7.95-15.72-4-3.58-9.5-5.29-14.88-5.14-5.37.15-10.61,2.06-15.15,4.94-1.86,1.18-3.62,2.53-5.15,4.12-1.41,1.47-2.6,3.13-3.67,4.87-7.47,12.18-8.03,28.28-1.49,40.98ZM674.6,274.5l.03-.04h0s.11-.02.11-.02c.6.42,1.33.69,2.06.64s1.45-.45,1.77-1.11c.23-.46.24-1.01.16-1.52-.17-1.1-.84-2.17-1.87-2.6-1.02-.44-2.39-.08-2.9.91-.28.55-.28,1.19-.21,1.8.07.73.29,1.51.85,1.94Z"/>
      <path d="M721.45,335.26c.03.86.06,1.72.08,2.57l-.56.02c-9.35-1.11-18.78-1.56-28.2-1.32l-.99-.23c1.68-7.28,3.36-14.56,4.98-21.85l.33-1.26,1.06.28c12.23.59,24.46.92,36.7.98l.7-.37c3.42,7.49,6.85,14.87,10.2,23.14.09.22.18.43.27.65l-.17.07c-7.94-.6-15.86-1.5-23.73-2.7l-.67.02Z"/>
      <path class="cls-8" d="M739.12,198.06c1.71,8.2,1.65,16.77-.18,24.95-1.56,6.99-4.71,14.06-10.63,18.1-5.76,3.93-13.43,4.36-20.09,2.29s-12.42-6.38-17.36-11.3h-.03c-6.54-12.69-5.98-28.79,1.49-40.97,1.07-1.74,2.26-3.4,3.67-4.87,1.53-1.59,3.29-2.94,5.15-4.12,4.54-2.88,9.78-4.79,15.15-4.94,5.38-.15,10.88,1.56,14.88,5.14,4.45,3.99,6.72,9.87,7.95,15.72ZM720.7,218.08c1.46-1.53,2.26-3.72,1.99-5.82s-1.67-4.05-3.63-4.86c-1.95-.81-4.4-.36-5.85,1.18-1.13,1.2-1.6,2.92-1.5,4.57.1,1.64.72,3.22,1.51,4.66.25.47.61.98,1.14.99l.04-.04c.74.84,1.95,1.23,3.08,1.08,1.24-.15,2.36-.86,3.22-1.76Z"/>
      <path class="cls-10" d="M738.25,510.13h-.01c-1.51.1-4.22.25-5.73.34-.73.05-1.47.09-2.2.14-.74.04-1.49.08-2.23.11-.23-7.73-.21-15.46.06-23.19l.03-.58c.44.01.88.04,1.32.07h.65c-.34,1.42-.56,2.85-.49,4.31.06,1.43.4,2.84.79,4.21,1.52,5.32,4.11,10.54,7.81,14.59Z"/>
      <path class="cls-9" d="M735.55,314.08l-.7.37c-12.24-.06-24.47-.39-36.7-.98l-1.06-.28c1.28-4.76,2.55-9.52,3.83-14.28l.1-.73c8.5,1.14,17.26.39,25.36-2.41l1.25.16c2.61,6.43,5.26,12.33,7.92,18.15Z"/>
      <path d="M732.5,363.06c1.05,6.66,2.1,13.35,2.07,20.09,0,.66-.02,1.33-.04,1.99h-.3c-4.75-1.39-9.81-.89-14.74-1.18-4.24-.25-8.42-1.1-12.66-1.41-4-.3-8.03-.12-12.05-.32-4.13-.21-8.24-.81-12.34-1.41l-.79-.17c1.48-6.86,3.03-13.71,4.61-20.55l.77.18c11.28-.12,22.57.14,33.84.76l1.18-.03c.02.56.03,1.11.05,1.63,3.47-.39,6.95-.32,10.44-.08l-.04.5Z"/>
      <path class="cls-9" d="M734.23,385.13h.3c-.24,6.78-1.4,13.52-1.91,20.25l-.94-.08c-6.43-1.32-12.91-2.37-19.38-3.42-3.38-.55-6.76-1.09-10.14-1.64-7.89-1.28-15.84-2.56-23.83-2.24h-.07l-.21-.24c1.15-5.71,2.35-11.42,3.6-17.11l.79.17c4.1.6,8.21,1.2,12.34,1.41,4.02.2,8.05.02,12.05.32,4.24.31,8.42,1.16,12.66,1.41,4.93.29,9.99-.21,14.74,1.17Z"/>
      <path class="cls-14" d="M679.66,403.72c-.43-1.63-.86-3.27-1.3-4.9l-.03-.82c7.99-.32,15.94.96,23.83,2.24,3.38.55,6.76,1.09,10.14,1.64,6.47,1.05,12.95,2.1,19.38,3.42l.94.08c-.24,3.04-.34,6.06-.15,9.09h-.08c-.3,18.28.01,36.57.94,54.82.07,4.36-.69,8.75-1.85,12.96-.44,1.59-.97,3.17-1.34,4.77h-.65c-.44-.03-.88-.06-1.32-.07-2.74-.14-5.49-.03-8.21.31-.29.03-.57.07-.86.11v.15c-2.61.15-5.13,1.57-6.58,3.76-.79,1.2-1.26,2.57-1.61,3.96-.02.06-.03.13-.05.19l-.59-.14c-2.47.18-4.97.1-7.42-.25-.27-.04-.58-.06-.77.14-.1.1-.13.26-.16.4-.11.62-.11,1.25-.11,1.88.01,2.23.01,4.46.01,6.69,0,.18,0,.36.09.52.18.32.62.37.99.37,2.59.04,5.17.08,7.75.12l.52-.21c.03.1.08.21.12.31,1.36,3.12,4.47,5.61,7.87,5.54v-.05l.51.03c2.8.15,5.61.08,8.41-.06.74-.03,1.49-.07,2.23-.11l.11,1.68c-1.35,3.28-2.68,6.58-3.98,9.88-.98,2.47-1.94,4.94-2.88,7.41-.47,1.22-.94,2.52-.75,3.82l-.12.51c-.28-.07-.55-.13-.83-.19-5.77-1.4-11.65-2.35-17.56-2.86-.62-.05-1.23-.1-1.85-.15-.86-3.85-1.69-7.71-2.48-11.58-1.13-5.4-2.19-10.81-3.19-16.23-1.94-10.38-3.66-20.79-5.17-31.24-1.78-12.32-3.27-24.67-5.35-36.94-1.78-10.41-3.98-20.76-6.6-31Z"/>
      <path class="cls-10" d="M728.17,486.95l-.03.58c-.27,7.73-.29,15.46-.06,23.19-2.8.14-5.61.21-8.41.06v-.06c-.52-7.74.58-15.51.31-23.26l-.02-.2c2.72-.34,5.47-.45,8.21-.31Z"/>
      <path class="cls-13" d="M723.66,560.2l.04.29c-14.95,1.93-30.07,2.56-45.14,1.89-.4-.02-.81-.04-1.16-.22-.64-.32-.94-1.05-1.14-1.73-.12-.41-.22-.84-.29-1.26l1.23-.16c15.35.4,30.67-1.31,45.99-2.44h.29c.01,1.22.06,2.43.18,3.63Z"/>
      <path class="cls-6" d="M679.85,552.85c2.96-2.33,6.26-4.17,9.59-5.96l.26.49c.41.73.88,1.44,1.53,1.97.91.74,2.12,1.04,3.29,1.02,1.17-.01,2.32-.32,3.43-.69,2.28-.76,4.48-1.77,6.54-3.02.58-.35,1.17-.75,1.48-1.35.24-.46.3-.99.35-1.51.08-.94.15-1.97-.4-2.74-.54-.74-1.63-1.22-1.59-2.14l-.11-.29c.24-.11.49-.2.74-.29l.29.32c2.09,1.09,4.36,1.84,6.69,2.22,1.01.16,2.03.26,3.05.16,1.52-.14,2.96-.71,4.38-1.27.23-.08.46-.18.62-.37l.09-.12.3.06c.45-.24,1.03-.05,1.39.31.36.37.54.87.69,1.36,1.53,4.99.94,10.31,1.02,15.56h-.29c-15.32,1.13-30.64,2.84-45.99,2.44l-1.23.16c-.16-.94-.16-1.89.11-2.79.4-1.32,1.22-1.45,3.77-3.54h0Z"/>
      <path d="M716.93,208.66c.42-.43.99-.72,1.6-.79.17-.02.42-.11.37-.28-.5-.18-1.1-.07-1.5.28-.23.2-.39.48-.47.79ZM714.4,218.76l-.04.04c-.53-.01-.89-.52-1.14-.99-.79-1.44-1.41-3.02-1.51-4.66-.1-1.65.37-3.37,1.5-4.57,1.45-1.54,3.9-1.99,5.85-1.18,1.96.81,3.36,2.76,3.63,4.86s-.53,4.29-1.99,5.82c-.86.9-1.98,1.61-3.22,1.76-1.13.15-2.34-.24-3.08-1.08ZM716.41,209.37c-.53-.44-1.13-.75-1.81-.82-.25-.02-.51,0-.7.14-.27.19-.34.56-.39.9-.4,2.89-.73,6.12.98,8.49.25.35.56.68.96.82.41.13.93,0,1.11-.39.13-.27.07-.58,0-.87-.08-.37-.17-.73-.27-1.09.04-.13.06-.26.08-.39.17-1.3.06-2.64-.31-3.89,1.29.39,2.29,1.73,2.17,3.09-.04.5-.21.99-.22,1.5,0,.27.06.56.2.79.11.2.28.36.5.43.64.22,1.24-.36,1.66-.88.69-.87,1.42-1.81,1.51-2.91l-1.35.57s.01-.04.01-.07c-.21.09-.41.2-.6.32-.01.01-.02.01-.03.02h-.01s-.07.03-.1.04c-.3.13-.59.25-.89.38-.06.03-.13.05-.19.08.14-1.62-.25-3.34-1.08-4.75-.33-.55-.74-1.09-1.23-1.51Z"/>
      <path class="cls-9" d="M722.05,361.01l-1.18.03c-11.27-.62-22.56-.88-33.84-.76l-.77-.18c1.82-7.94,3.68-15.87,5.52-23.8l.99.23c9.42-.24,18.85.21,28.2,1.32l.56-.02c.27,8.61.34,16.99.52,23.18Z"/>
      <path d="M720.53,214.86l1.35-.57c-.09,1.1-.82,2.04-1.51,2.91-.42.52-1.02,1.1-1.66.88-.22-.07-.39-.23-.5-.43.2-.45.34-.93.43-1.42.34-.41.74-.76,1.19-1.05.01,0,.03.02.04.02.27.07.62-.07.66-.34Z"/>
      <path class="cls-8" d="M721.86,533.72h0c-.54,1.72-1.08,3.44-1.62,5.15-.05.14-.09.28-.16.41l-.09.12c-.16.19-.39.29-.62.37-1.42.56-2.86,1.13-4.38,1.27-1.02.1-2.04,0-3.05-.16-2.33-.38-4.6-1.13-6.69-2.22l-.29-.32.48-.25c.11-.77-.11-1.52-.38-2.27h0c-.26-1.58-.52-3.16-.78-4.73l.02-.23c5.91.51,11.79,1.46,17.56,2.86Z"/>
      <path d="M720.54,214.79s0,.05-.01.07c-.2.09-.39.17-.59.25.19-.12.39-.23.6-.32Z"/>
      <path d="M719.94,215.11c.2-.08.39-.16.59-.25-.04.27-.39.41-.66.34-.01,0-.03-.01-.04-.02.02-.02.05-.03.07-.05h.01s.02-.01.03-.02Z"/>
      <path class="cls-11" d="M719.16,510.75v.05c-3.4.07-6.51-2.42-7.87-5.54-.04-.1-.09-.21-.12-.31-1.21-2.99-1.07-6.38-.31-9.52.02-.06.03-.13.05-.19.35-1.39.82-2.76,1.61-3.96,1.45-2.19,3.97-3.61,6.59-3.76v-.15c.28-.04.56-.08.85-.11l.02.2c.27,7.75-.83,15.52-.31,23.26v.06l-.51-.03Z"/>
      <path d="M719.8,215.17s.02.01.03.01c-.45.29-.85.64-1.19,1.05.03-.2.06-.4.08-.6.06-.03.13-.05.19-.08.3-.13.59-.25.89-.38Z"/>
      <path d="M718.9,207.59c.05.17-.2.26-.37.28-.61.07-1.18.36-1.6.79.08-.31.24-.59.47-.79.4-.35,1-.46,1.5-.28Z"/>
      <path d="M716.41,209.37c.49.42.9.96,1.23,1.51.83,1.41,1.22,3.13,1.08,4.75-.16.08-.31.17-.41.31-.14.2-.15.51.06.65.08-.12.18-.24.27-.36-.09.49-.23.97-.43,1.42-.14-.23-.2-.52-.2-.79.01-.51.18-1,.22-1.5.12-1.36-.88-2.7-2.17-3.09-.2-.71-.49-1.4-.85-2.04-.07-.13-.15-.27-.28-.34-.33-.18-.74.14-.8.51-.06.36.11.72.27,1.05.13.27.26.55.38.82-.1.04-.19.1-.25.19-.13.17-.15.4-.16.61-.04.87,0,1.74.13,2.6.05.4.14.82.39,1.13.26.31.74.47,1.08.25.17-.12.27-.3.32-.5.1.36.19.72.27,1.09.07.29.13.6,0,.87-.18.38-.7.52-1.11.39-.4-.14-.71-.47-.96-.82-1.71-2.37-1.38-5.6-.98-8.49.05-.34.12-.71.39-.9.19-.14.45-.16.7-.14.68.07,1.28.38,1.81.82Z"/>
      <path d="M718.72,215.63c-.02.2-.05.4-.08.6-.09.12-.19.24-.27.36-.21-.14-.2-.45-.06-.65.1-.14.25-.23.41-.31Z"/>
      <path d="M716.06,212.27c.37,1.25.48,2.59.31,3.89-.02.13-.04.26-.08.39-.39-1.47-.89-2.9-1.51-4.28.17-.1.39-.12.59-.12.24.01.47.05.69.12Z"/>
      <path d="M716.29,216.55c-.05.2-.15.38-.32.5-.34.22-.82.06-1.08-.25-.25-.31-.34-.73-.39-1.13-.13-.86-.17-1.73-.13-2.6,0-.21.03-.44.16-.61.06-.09.15-.15.25-.19.62,1.38,1.12,2.81,1.51,4.28Z"/>
      <path d="M716.06,212.27c-.22-.07-.45-.11-.69-.12-.2,0-.42.02-.59.12-.12-.27-.25-.55-.38-.82-.16-.33-.33-.69-.27-1.05.06-.37.47-.69.8-.51.13.07.21.21.28.34.36.64.65,1.33.85,2.04Z"/>
      <path class="cls-1" d="M711.17,504.95l-.52.21c-2.58-.04-5.16-.08-7.75-.12-.37,0-.81-.05-.99-.37-.09-.16-.09-.34-.09-.52,0-2.23,0-4.46-.01-6.69,0-.63,0-1.26.11-1.88.03-.14.06-.3.16-.4.19-.2.5-.18.77-.14,2.45.35,4.95.43,7.42.25l.59.14c-.76,3.14-.9,6.53.31,9.52Z"/>
      <path class="cls-2" d="M705.92,541.06c.55.77.48,1.8.4,2.74-.05.52-.11,1.05-.35,1.51-.31.6-.9,1-1.48,1.35-2.06,1.25-4.26,2.26-6.54,3.02-1.11.37-2.26.68-3.43.69-1.17.02-2.38-.28-3.29-1.02-.65-.53-1.12-1.24-1.53-1.97l-.26-.49c2.76-1.48,5.54-2.9,8.2-4.53,2.15-1.32,4.25-2.78,6.58-3.73l.11.29c-.04.92,1.05,1.4,1.59,2.14Z"/>
      <path class="cls-4" d="M676.06,515.46c-.23,0-.45.01-.68.02v-.42c.73-14.2,1.47-28.41,2.2-42.62,1.03-19.72,2.05-39.45,1.89-59.19v-.04c-.15-3.16-.09-6.33.19-9.49,2.62,10.24,4.82,20.59,6.6,31,2.08,12.27,3.57,24.62,5.35,36.94,1.51,10.45,3.23,20.86,5.17,31.24l-.09.02c-1.78,4.4-3.82,8.7-6.1,12.87-.77-.06-1.54-.11-2.3-.15-4.07-.23-8.15-.29-12.23-.18Z"/>
      <path class="cls-8" d="M686.22,520.84c-.04.05-.08.09-.13.13-.19.16-.45.23-.7.29-1.9.46-3.87.42-5.82.38-.64-.01-1.31-.04-1.87-.37-.41-.24-.69-.62-.88-1.06-.23-.53-.32-1.16-.34-1.74,0-.07,0-.13-.01-.2-.02-.96.01-1.96-.41-2.81,4.08-.11,8.16-.05,12.23.18l-.06.88c-.32.72-.65,1.45-.98,2.17-.23.53-.47,1.05-.71,1.58-.09.2-.18.41-.32.57Z"/>
      <path class="cls-6" d="M687.99,526.92c.02,2.22.02,4.44.01,6.67h-.19c-3.4-.1-6.8.1-10.19.32-2.98.2-5.98.43-8.96.23-1.14-.07-2.27-.21-3.4-.19-3.53.04-7,1.55-10.49,1.04l-.81-.21c.09-.33.17-.65.21-.98.03-.25.04-.51.15-.74.09-.18.25-.32.39-.46.58-.53,1.16-1.06,1.81-1.49.88-.59,1.87-1,2.83-1.45,1.77-.82,3.49-1.75,5.18-2.73l.21.37c1.87.51,3.85.24,5.73-.23.98-.24,1.98-.55,2.76-1.19,1.43-1.18,1.82-3.17,2.11-5,.42-.2.84-.39,1.26-.57l.22-.1c.19.44.47.82.88,1.06.56.33,1.23.36,1.87.37,1.95.04,3.92.08,5.82-.38.25-.06.51-.13.7-.29.05-.04.09-.08.13-.13.77.46,1.18,1.34,1.41,2.21.32,1.26.35,2.57.36,3.87Z"/>
      <path class="cls-13" d="M655.07,537.84c-.44,0-.88-.29-1.1-.69-.28-.5-.27-1.11-.17-1.67.05-.24.11-.47.16-.7l.81.21c3.49.51,6.96-1,10.49-1.04,1.13-.02,2.26.12,3.4.19,2.98.2,5.98-.03,8.96-.23,3.39-.22,6.79-.42,10.19-.32h.19c.01.7,0,1.4,0,2.11l-.2.34c-5.12.31-10.24.62-15.35.93l-16.83,1.02-.55-.15Z"/>
      <path d="M674.63,274.45h0s-.03.05-.03.05c-.56-.43-.78-1.21-.85-1.94-.07-.61-.07-1.25.21-1.8.51-.99,1.88-1.35,2.9-.91,1.03.43,1.7,1.5,1.87,2.6.08.51.07,1.06-.16,1.52-.32.66-1.04,1.06-1.77,1.11s-1.46-.22-2.06-.64h-.11ZM676.14,273.12c.31,0,.62-.07.89-.2.06-.03.12-.07.15-.12.03-.08,0-.17-.04-.24-.12-.26-.28-.49-.48-.68-.12-.11-.29-.22-.43-.15-.09.05-.14.14-.17.23-.13.36-.13.77.04,1.1.01.02.02.04.04.06Z"/>
      <path d="M677.14,272.56c.04.07.07.16.04.24-.03.05-.09.09-.15.12-.27.13-.58.2-.89.2-.02-.02-.03-.04-.04-.06-.17-.33-.17-.74-.04-1.1.03-.09.08-.18.17-.23.14-.07.31.04.43.15.2.19.36.42.48.68Z"/>
      <path class="cls-2" d="M675.34,520.88c-.29,1.83-.68,3.82-2.11,5-.78.64-1.78.95-2.76,1.19-1.88.47-3.86.74-5.73.23l-.21-.37c3.58-2.07,7.06-4.33,10.81-6.05Z"/>
      <path class="cls-8" d="M650.91,207.46l.19.02c.16.25.24.54.38.81.14.26.36.51.66.56.37.05.71-.24.94-.54.96-1.24,1.17-2.89,1.22-4.45.02-.7.02-1.4-.17-2.07-.14-.51-.52-1.05-1.04-1-.35.03-.61.34-.83.63-.47.6-.94,1.23-1.17,1.95-.43,1.3-.05,2.72-.18,4.09ZM660.32,177.09c3.65,1.6,6.5,4.68,8.51,8.13,2.06,3.54,3.33,4.54,4.46,10.58.05,3.46.1,6.96-.62,10.34-1.43,6.7-5.74,12.4-10.37,17.45-5.58,6.09-12.54,11.92-20.79,12.15l-.66.11c.01.07.02.15.04.22h-.08c-2.99-3.57-3.42-8.58-3.56-13.25-.1-3.38-.12-6.78.35-10.13.88-6.25,3.44-12.12,6.04-17.87,1.72-3.8,3.5-7.63,6.1-10.89,2.61-3.26,6.17-5.93,10.28-6.66l.12-.26c.06.02.12.05.18.08Z"/>
      <path d="M654.13,201.79c.19.67.19,1.37.17,2.07-.05,1.56-.26,3.21-1.22,4.45-.23.3-.57.59-.94.54-.3-.05-.52-.3-.66-.56-.14-.27-.22-.56-.38-.81l-.19-.02c.13-1.37-.25-2.79.18-4.09.23-.72.7-1.35,1.17-1.95.22-.29.48-.6.83-.63.52-.05.9.49,1.04,1Z"/>
    </g>
    <path d="M706.36,504.73c-.05.14.01-.02.03-.05.01-.02.05-.06.05-.08,0,.02-.06.08-.02.03.04-.04.08-.09.12-.13.07-.06-.01,0-.01,0,0,0,.06-.04.07-.05.05-.03.09-.05.14-.08.05-.03-.1.04-.02,0,.03,0,.05-.02.08-.02s.05-.01.08-.02c.02,0,.03,0,.05,0,.04,0,.02,0-.05,0,.05,0,.11,0,.16,0,.02,0,.12,0,.03,0s.02,0,.03,0c.01,0,.15.05.15.05,0,0-.11-.05-.02,0,.02.01.05.02.07.04s.05.03.07.04c.06.04.02.02-.01-.01.03.04.08.07.12.11.02.02.04.06.06.07-.03-.02-.06-.08-.01-.01.03.04.05.09.08.14.03.05-.03-.1,0-.02,0,.03.02.06.03.09l.48-.63c-.72.02-1.45.03-2.17.02-.26,0-.51.23-.5.5s.22.5.5.5c.72.01,1.45,0,2.17-.02.32-.01.57-.31.48-.63-.2-.7-.84-1.2-1.56-1.24-.33-.02-.68.09-.95.26-.33.21-.55.5-.69.86-.1.24.11.56.35.62.29.07.51-.09.62-.35h0Z"/>
    <path d="M722.45,212.88c0-.7-.28-1.37-.75-1.9-.18-.2-.53-.19-.71,0-.19.21-.19.5,0,.71.04.04.08.09.11.14l-.08-.1c.12.16.23.34.3.52l-.05-.12c.08.2.14.4.17.61l-.02-.13c.01.09.02.18.02.28,0,.26.23.51.5.5s.5-.22.5-.5h0Z"/>
    <path class="cls-7" d="M720.95,213.35c.09-.51.08-1.05-.11-1.54-.09-.24-.2-.46-.33-.67-.06-.09-.11-.19-.16-.28-.02-.05-.02-.05,0,0,0-.03-.02-.05-.03-.08,0-.03-.01-.05-.02-.08,0,.06,0,.07,0,0l-.37.48c.06-.01.03,0-.01,0,.07-.01,0-.02-.01,0,.01,0,.06.02.08.02.11.03-.03-.03.01,0,.02.02.05.03.07.04.05.03-.04-.05,0,0,.02.02.04.04.06.06.05.04-.03-.06,0,0s.07.11.1.17c.01.03.02.05.04.08-.02-.04-.02-.04,0,0,.04.13.09.25.12.38s.07.26.09.39c.01.07.02.13.03.2,0,.03.01.11,0,.04,0,.03,0,.07.01.1.01.12.03.24.02.37v.03s0,.04,0,0c0-.04,0-.04,0-.02,0,.01,0,.02,0,.03-.01.03.03-.06.04-.08.02-.02.11-.09.05-.06-.24.1-.31.48-.18.68.16.25.43.29.68.18.38-.16.44-.63.41-.99-.03-.4-.1-.8-.21-1.19-.1-.37-.24-.73-.5-1.02-.29-.32-.74-.47-1.16-.37-.2.04-.38.27-.37.48.04.5.33.89.55,1.32.01.03.01.03,0-.01.01.03.02.06.03.09.02.06.04.12.05.17.01.04.02.09.03.13,0,.02.03.21.02.09.01.11.02.21.02.32,0,.06,0,.12,0,.18,0,.06,0,.06,0,0,0,.03,0,.06-.02.09-.05.26.07.55.35.62.25.06.56-.07.62-.35h0Z"/>
    <path class="cls-7" d="M653.85,204.83c.02-.49.02-.98.02-1.47,0-.26-.23-.51-.5-.5s-.5.22-.5.5c0,.49,0,.98-.02,1.47,0,.26.24.51.5.5.28-.01.49-.22.5-.5h0Z"/>
    <rect class="cls-12" x="597.05" y="586.39" width="22.2" height="5052.87"/>
    <rect class="cls-12" x="774.73" y="595.18" width="22.2" height="5044.08"/>
  </g>
</svg>