<?xml version="1.0" encoding="UTF-8"?>
<svg id="Layer_2" data-name="Layer 2" xmlns="http://www.w3.org/2000/svg" viewBox="0 0 1920 1080">
  <defs>
    <style>
      .cls-1 {
        fill: #ff585d;
      }

      .cls-2 {
        fill: #22b573;
      }

      .cls-3 {
        opacity: .79;
      }
    </style>
  </defs>
  <g class="cls-3">
    <path class="cls-2" d="M1079,899c-7-1-13-2-19-6-6-5-9-13-7-20,5-12,14-21,24-30,1,0,2,0,3-1,3-3,7-5,11-7,22-16,41-31,56-53,4-7,7-14,6-22-1-7-7-12-13-12-15-2-25,10-37,19-17,13-33,27-49,42l-12,9c-12,8-25,15-39,14-9-6-14-16-21-24-3-4-6-9-10-13-2-1-3-2-5-3-20-6-41-4-61,1-14,8-24,26-20,42,4,11,13,17,22,24,14,9,30,6,45,8,13,2,17,13,22,24l2,1c3,9,10,15,16,22,4,4,8,7,14,8,9,2,17,0,26,2,6,2,12,2,18,4s15,6,11,13c-12,20-38,19-59,21-21-4-42-20-47-42,4-11-3-22-12-29-1-1-3-1-5-1-15-8-30-13-47-13-6,0-12-2-18-5-6-4-11-10-16-16s-6-13-8-20c-2-11,3-20,10-28,10-9,19-19,23-32,1-5,0-10-2-14-1-1-3-2-3-2-4-3-10-1-14,2-11,9-22,15-32,25-1,1-2,3-3,5-11,23-12,49-29,69-1,1,0,2-1,3-4,6-10,12-17,9-18-9-41-13-58,2-11,10-14,25-17,40-2,9-4,19,2,27,4,5,11,8,18,5,3-2,6-5,6-9-1-11,2-22,13-27,13-5,26-6,40-5,1,0,4,1,3,3,0,1-2,1-3,2-2,2-3,4-6,6s-5,5-4,8c3,14-11,20-19,27-4,2-9,5-8,10,3,7,10,11,17,10,20,0,40-1,59-8,1-1,3-2,5-3,3-2,5-5,7-7,1-2,1-5,2-8,0-2-1-5-1-7-1-2-2-3-2-5-3-5-8-10-11-15-1-3-2-7-1-11,4-11,15-16,26-14,14,3,24,12,31,24,6,8,11,14,19,19s14,11,23,12c6,1,14,5,10,13-2,3-4,5-7,6-18,7-37,10-56,13-29,4-56,5-84,7-6,1-12,3-17,7-1,1-1,2-3,3-3,4-6,9-4,14,8,19,24,38,18,59-1,4-7,5-11,4-15-6-33-7-43-22-1-1-2-1-3-2-6-8-11-16-16-23-10-14-13-31-11-47-6-18-6-36-5-55,2-20,4-41,19-56,2-1,3-3,5-5,7-6,15-10,24-12,4-1,7-4,11-6,7-5,11-11,17-17,14-14,18-36,11-54-1-2-2-5-3-7-10-15-31-13-45-4-10,7-15,18-26,24-9,5-19,9-29,11-6,1-13,1-19,2-5,2-9,6-12,11-10,19-17,39-20,61,0,1-1,3-2,5-2,3-6,6-10,5-8-1-11-7-15-13-4-9,0-18,5-25,11-13,19-28,18-45-1-3-1-6-2-9-3-8-8-14-14-21-1-1-2-1-3-1-2-2-5-4-7-6-13-6-25-14-38-20-3-2-5-4-8-6-9-4-17-9-25-14-1-1-3,0-4-1-17-11-34-20-52-29-22-10-45-10-69-14-10-1-19,1-28,6-5,4-9,10-7,16,3,8,10,13,18,17,9,3,16,8,24,12,0,0,1,1,1,2,25,18,40,42,53,69l9,21c5,19,12,36,16,55,3,9,7,19,16,23,5,2,11,3,17,1,8-4,14-12,23-14,17-2,33,10,41,24,4,19-11,37-27,46-10,6-21,5-31,1h-3c-9-4-17-9-24-16-1-1-3-1-4-2-12-12-22-23-31-37-10-15-18-29-23-45-12-35-17-75-45-100-14-3-26-9-37-18-1-1-3-1-4-2-13-17-26-31-38-49-4-6-8-12-6-18,1-1,1-3,2-4,4-4,8-7,12-10,14-8,30-8,46-11,16-2,31-3,46,2,8,2,17,3,26,5,16,3,31,3,46,2,6-1,11-2,15-6,6-9-2-18-7-25-11-14-27-19-42-29-4-3-7-8-4-13,5-8,14-10,23-8,19,4,28,22,38,37,10,16,15,33,24,50,8,14,18,26,30,37,14,11,29,20,41,33,8,10,14,20,23,28,2,1,5,3,7,5,13,8,30,17,43,7,4-13-4-24-11-35-1-1-1-2-1-3s-1-1-2-1v-2c-15-17-26-34-45-48-23-16-45-30-65-49-11-12-18-26-23-42-1-6-1-12,2-18,7-10,20-11,30-4,27,21,48,43,73,65,3,3,7,1,10-1,1-1,2-4,1-6-2-7-7-12-11-18-16-20-34-34-55-50-7-5-14-8-22-12-6-5-16-8-16-16-2-24-17-42-36-56-18-12-35-20-55-23-12-1-26-2-35,7-5,6,0,14,5,19-2,1,4,6-5,3-30-8-56-19-86-28-15-4-29-6-44-5-4,1-9,1-9,5,0,6,8,8,13,9,39,11,77,18,114,33,14,6,29,15,34,31,2,7-1,14-8,17-12,5-22,11-33,19-7,5-12,12-19,17-21,12-45,15-68,12-8,0-16-2-22-8-1-1-2,0-3-1-7-6-14-13-14-23,1-8,7-14,14-18,13-6,26-12,39-19,5-3,10-5,14-9l6-6c4-5,3-11-1-15l-3-3c-20-12-42-16-65-17-3-1-7-1-9,2-9,16-23,26-36,37-8,7-17,12-26,16-7,4-14,7-21,10-11,5-21,12-28,23-3,5-3,10-2,15,2,4,6,6,7,10,3,13-11,19-21,24-33,15-68,24-98,45-43,38-84,82-99,138-5,38,6,76,16,112,0,44-23,83-36,125-4,15-7,30-7,45,0,6,2,11,6,16,12,2,22-7,31-15,3-4,6-7,9-11,15-22,22-44,31-68,9-22,19-41,33-61,12-16,25-30,33-48,0-1,2-1,2-2,3-9,4-18,7-27,5-18,21-30,38-37,13-5,29-6,39-16,4-19,14-36,29-49,2-1,3-1,5-3,1-1,2-1,3-1,1-1,1-2,2-2,6-2,12-5,18-5,32-2,63-2,95-4,5-1,10-1,15,3,13,10,28,18,32,35,0,3-1,5-3,7-9,6-20,5-30,5-4,1-9,0-13-2-1,0-1-2-2-2l-9-3c-2-1-5,0-7,0-22,1-45,0-65,14-3,3-7,5-10,8-6,8-10,17-15,26-1,2-3,3-4,5,0,1-1,2-1,3-1,2-2,3-4,5-1,1-1,2-1,3-1,2-2,3-4,5-1,1,0,2-1,3-4,3-5,9-11,9-20,18-38,38-51,62-10,9-23,13-35,18-6,3-10,8-12,15-1,5,1,10,6,10,12,0,24,2,37-1,20-4,28-22,38-39,5-7,9-14,16-18,29-18,43-45,63-71,7-8,17-14,28-14,6-1,12,4,15,10,8,15,14,29,22,43,4,7,4,14,3,22-1,3-2,5-4,8-3,5-9,9-13,14-17,18-31,40-28,66,2,10,8,19,17,25l1,2c9,6,16,11,24,18s19,5,27-1c8-7,15-14,26-16,4,0,8-1,12-2h4c17-6,32-21,29-41-10-51-33-90-63-133-4-6-5-13-2-19,6-10,20-14,31-8,19,11,31,31,39,51,6,49,25,95,59,132,9,10,21,15,32,22,13,8,26,14,39,20,16,7,31,13,48,15,6,1,12-1,18-2,36-3,71,6,103,22,2,1,5,1,7,2,9,6,22,12,18,24-1,2-2,3-3,5-5,6-12,9-18,13-2,1-5,2-7,3-13,4-27,5-41,1-16-5-31-8-48-12-11-2-22-2-33-6h-4c-13-5-26-8-38-14-14-7-28-13-42-20-19-9-40-16-61-14-9,0-17,5-24,12-7,8-8,19-3,29l3,3c7,13,16,23,28,32,1,1,3,0,4,1,14,9,31,12,47,11,6-1,11-5,17-6,4,0,8-1,12-1,9,1,17,1,26,2s17,3,25,6c25,10,49,17,75,22,21,3,42,1,63-2h8c4-1,9-1,13-2h8c17-3,34-4,51-6,29-5,59-12,79-35,15-25-11-46-26-64-6-7-8-17-1-23,18-14,40-11,61-13,19-2,36-5,55-10,30-7,55-21,83-31,7-2,15-6,22-3v2c-14,17-34,27-53,36l-9,3c-38,9-74,12-112,21-6,1-17,2-17,11,7,11,21,16,34,19,25,6,49,4,73-2,38-10,71-29,100-56,13-12,23-25,34-40,5-7,7-15,10-22,5-13,6-28-2-40-6-9-17-13-27-13h0ZM120,718c-15,9-29,18-43,30-10,10-20,19-26,32-3,6-5,13-3,20,1,1,2,3,3,6,0,1,1,1,2,2,3,6,3,13,1,19-4,9-16,12-25,11-8-1-13-7-17-13-3-5-6-8-7-13-3-14,5-27,11-39,10-19,21-37,36-53,12-12,24-24,40-30,12-10,25-19,35-33,11-17,25-31,45-36,6-1,13,1,17,6,9,15,5,31-5,44-18,21-40,36-64,47h0Z"/>
  </g>
  <g class="cls-3">
    <path class="cls-2" d="M2096,100c-10-3-26-1-27-14-1-16,9-27,18-39,2-2,5-4,7-7,2-2,5-4,8-6,17-17,32-34,45-55,6-10,11-20,12-31,0-6-2-14-8-16-14-6-25,9-34,19-17,20-32,40-49,60-12,12-23,24-38,31-5,2-11,5-15,2-15-14-23-41-48-37-12,2-23,5-35,6-18,8-29,28-26,48,2,8,5,16,13,20,2,1,3,2,5,3,4,2,9,2,13,3,2,1,4,3,7,3,15-2,32-7,43,6,7,17,20,32,37,40,18-2,38-7,56,1,2,0,3,4,2,7-7,18-27,24-44,30h-4c-13,4-26,2-38-5v-2c-17-8-20-28-23-45-4-5-8-9-14-11-17-6-35-6-53-6-5,0-10-2-15-4-6-4-11-9-15-15-8-13-8-29,0-42,11-15,26-28,27-47,0-6-5-14-11-11-15,5-25,18-37,30-3,4-5,8-7,13-9,28-14,59-36,80-3,2-8,2-11,1-18-8-41-10-56,5-11,12-16,28-20,44-1,5-2,10-1,16,1,8,8,14,16,14,4,0,8-4,10-7,3-7,0-16,5-23,3-5,8-9,14-11,13-5,26-5,39-4l1,2c-5,3-8,8-13,11-2,8,1,17-6,23-6,5-14,8-20,14-2,3-4,8-1,11,4,6,12,7,19,6,3-1,5-2,8-2,17,0,35-2,50-12,5-4,9-7,11-12,0-2,1-5,1-7-1-9-6-17-13-22-6-12,3-26,16-28,9-1,17,1,25,5,12,8,19,20,29,30,6,5,12,7,19,10,2,1,4,0,7,2s8,0,11,2c4,5,0,11-3,15-43,17-88,29-135,31-11,1-22,4-31,12-4,4-7,9-4,15,7,17,20,34,18,53,0,5-6,7-11,7-15-2-30-5-42-14-15-13-30-29-32-49-2-15-2-30-4-45-2-27,2-54,14-79,9-17,25-25,42-32,7-3,11-10,17-14,1-1,0-2,1-3,22-17,31-47,15-71-7-9-20-9-30-6h-4c-4,2-9,5-12,8-16,22-40,35-66,36-7,1-12,6-16,12-1,2-1,5-2,7-6,8-8,17-12,26-4,12-4,26-13,36-5,4-11,2-16-2-5-5-8-11-7-18,3-14,14-21,21-33,8-13,9-29,4-43-5-12-14-22-27-27-12-6-21-14-33-22-28-17-53-34-81-51-7-4-14-7-22-10-23-8-47-11-71-11-6,4-14,5-16,11-7,21,21,29,36,35,14,12,29,25,39,42l3,3c13,22,22,43,27,68,3,18,4,34,8,52,2,9,8,14,16,18,11,5,20-3,29-9,7-3,14-3,21,0,12,7,26,14,26,29,0,22-20,40-41,41-30,3-52-20-68-44-13-21-20-42-29-64-1-23-6-46-14-68-3-9-6-17-12-26-3-4-6-8-11-10-20-10-41-15-55-35-1-1-2-1-3-2-10-13-19-24-30-36-6-7-3-16,4-21,16-13,35-14,54-15,8-1,17-4,25-2,34,4,66,17,101,14,6-1,14-3,13-10,0-15-13-25-25-33-12-7-22-13-33-21-2-2-3-4-3-6,2-11,14-14,24-12,11,2,19,10,26,18,6,9,14,16,18,25,6,13,12,25,18,38,7,13,15,25,25,37,7,7,13,14,20,21,11,8,21,15,29,25,18,24,38,56,71,45,4-9,1-19-2-28-6-13-15-24-25-36-23-30-52-48-82-71-17-15-29-33-37-53-3-8-4-18,2-25,5-5,13-4,19-2,18,5,29,21,44,33,3,2,5,5,7,8,12,9,19,22,32,29,3,2,11,2,10-4-1-15-12-25-22-36-2-2-6-4-8-6-22-23-49-34-75-53-2-2-3-4-4-6-4-10-5-21-14-29-1-1,0-2-1-3-23-30-58-42-93-47-11-1-22,0-30,7-7,8,6,16,9,23-5,3-11-1-16-1-7-1-14-3-21-6-34-10-69-20-105-18-5,1-12,0-15,5,7,13,26,11,39,12,3,1,6,3,9,3,15,0,28,4,43,5,9,1,17,4,26,6,20,5,37,12,54,24,8,7,15,18,7,28-15,9-33,14-43,29-28,21-67,28-100,17-11-4-22-11-26-23-2-8,5-13,10-17,10-6,20-10,30-16,1-1,3,0,4-1,8-5,16-9,23-15,4-4,9-9,5-15-2-2-5-3-7-5-14-8-30-12-46-13-12,0-25-3-36,3-13,23-33,40-56,53-12,7-23,11-34,18-10,8-22,17-20,31,1,4,6,6,9,9,2,3,5,6,2,10l-6,6c-20,14-39,23-60,33-19,9-38,19-54,33-11,12-22,22-32,36-1,1-3,2-4,3-3,4-5,8-8,12-25,33-44,67-50,107-6,35,9,67,20,99,8,21,2,43-3,64-2,5-3,11-5,16-4,15-7,28-11,43-6,24-9,46-6,70,1,5,1,12,6,13,13,3,21-11,27-21,17-29,23-60,32-92,2-5,4-11,6-16,1-2,1-4,1-6,10-33,29-60,47-90,4-8,7-15,10-23,3-10,3-20,6-30,1-4,4-7,6-11,2-2,3-4,5-7,7-8,16-13,25-18,14-7,31-10,42-23,4-30,27-55,55-63,36-5,71-7,107-10,19,4,36,17,45,34,1,3,1,7-1,9-12,6-25,7-38,7-14-6-29-10-45-7-14,3-26,5-39,9-5,2-10,5-14,8-18,18-26,41-42,62-2,2-3,5-6,7-1,1-3,0-4,1-5,4-9,8-13,13-12,14-22,28-30,44-1,1-3,2-4,3-3,7-7,14-14,19-9,5-17,8-25,14-5,5-11,12-10,20,0,4,3,8,7,6,6-2,14-3,21-3,2,0,5-1,7-2h4c22-7,30-29,40-48,2-3,4-5,6-8,1-2,1-4,2-5,8-8,17-14,26-22,2-3,5-4,8-7,15-17,26-36,40-53l7-7c8-6,17-12,27-8,11,4,14,16,20,26,1,2,1,5,2,7,8,15,17,34,5,50-4,1-6,5-10,7-16,13-22,30-31,47-3,8-4,18-3,27,1,10,8,17,14,23,11,9,20,21,34,24,10,3,18-6,26-11,3-2,5-5,8-6,2,0,3-2,5-3,5-2,10-3,15-1,19-4,34-19,36-38-6-50-24-95-52-138-5-7-6-16,1-23s19-9,28-5c22,10,32,34,37,56,3,43,13,85,38,123,2,2,3,4,5,7,10,12,21,21,35,28,1,1,1,2,2,3,2,1,3,1,5,2,25,15,49,30,77,36,28-1,56-1,84,7,24,8,48,13,67,30,3,4,3,10,0,15-19,24-52,24-79,16-20-6-39-13-60-13-16-6-33-11-49-18-30-15-59-32-90-44-5-2-11-2-17-2-8,1-15,3-22,8-9,7-14,19-10,29,14,35,50,63,89,56,15-9,33-4,49-1,3,0,5-1,8,0,43,15,86,34,132,30,47-3,92-7,139-18,22-6,44-14,57-34,5-8,5-18-2-26v-3c-2-2-3-4-4-6-8-8-15-15-24-22-4-4-7-9-6-15,1-5,4-8,7-11,5-4,11-7,17-8,22-3,41-8,63-12,1,0,3-2,4-2,37-9,72-23,102-45,7-1,11-6,18-8,3-1,5-3,8-5,4-2,8-1,12,0-2,2-3,4-5,7-8,9-15,16-24,23-8,6-16,12-25,16-8,3-17,6-25,10-7,2-13,4-20,5-22,7-43,13-66,19-10,3-28,2-29,17,0,2,2,4,4,5,7,4,14,5,21,8,6,2,13,2,19,3,34,1,66-9,96-26,53-31,100-73,113-136,2-9,2-18-2-27-6-11-20-16-31-11h0ZM1135-44c-28,18-55,40-70,70-6,12,3,23,6,35,1,5,1,10-2,14-9,12-26,18-38,8-4-4-6-8-9-13-2-1-5-3-5-5,1-24,15-45,26-67,8-14,18-27,29-39,2-2,5-4,7-7,12-10,24-18,37-27,6-4,9-10,14-14s6-11,11-15c2-2,2-5,4-8,1-2,3-3,5-4,1-2,3-4,5-5,1-1,1-2,2-3s2-1,3-2,1-2,2-3c10-8,20-14,32-13,3,0,6,2,9,4,2,2,5,5,6,8,9,21-12,38-25,53-1,1-3,1-4,2-14,13-30,21-45,31h0Z"/>
  </g>
  <g class="cls-3">
    <path class="cls-1" d="M885,588c5-2,9-1,14-1,8,1,14,9,12,17-5,13-17,22-28,31-1,1-1,2-2,3-28,18-52,37-72,63-11,14-27,29-19,47,5,3,11,3,16,0,21-14,38-30,55-48,2-2,5-4,8-6,1-1,2-3,3-4,3-2,5-4,8-6,1-1,2-3,3-4,24-17,45-41,75-41,6,7,11,14,15,22h2c2,11,13,15,22,16,18,1,36,0,53-5,2-1,4-2,7-3,7-4,12-9,17-15,4-6,9-12,8-19-4-26-34-34-57-32-6,1-12-1-18-4-3-6-6-12-8-18-1-2-3-3-4-5,0-1,0-2-1-3-6-9-14-17-24-17-12-1-25,0-37,1-2,0-3-2-5-2-6,1-13,0-19-2-4-9,7-15,13-18,21-11,44-17,67-15,10,1,18,6,26,12,8,7,14,17,10,28-3,6-1,14,5,18,13,8,26,13,41,15,10,2,21,0,30,5,14,8,22,22,19,38-4,19-23,26-37,37-9,8-23,19-17,32,9,7,19-2,28-6,5-2,9-4,14-6,3-2,6-3,9-5,15-9,23-24,33-39,11-15,24-26,39-35,10-5,18,3,26,8,1,1,3,0,4,1,13,9,28,9,43,5,12-3,19-13,26-24l6-6c5-8,8-17,5-26-2-4-6-7-10-8-5-2-12-2-14,4-4,9-7,17-17,20-16,4-31,1-46-3-2-1-4-3-6-4,4-2,9-3,13-5s6-5,8-11c2-8,13-11,22-13,6-1,13-3,14-9,1-7-6-9-11-11-16-5-32-7-49-9-7-1-14,1-21,3-7,1-15,4-19,11-2,4,0,9,1,13,1,7,8,12,7,20-1,5-5,9-9,11-6,3-12,4-18,4-5,0-10-2-14-4-13-8-19-21-29-33-2-2-3-5-6-7-10-7-20-12-33-14-2-1-4-3-4-5,0-3,2-6,6-8,14-6,28-6,43-8,14-1,27-1,41-2,27-1,54,5,81,8,11,1,31,0,32-15-6-12-8-25-13-38,0-1,1-1,1-2-2-6-4-13,2-17,17-1,31,8,45,17,12,9,18,22,25,35,1,1,0,3,1,4,8,11,7,23,6,35-1,4-3,8-3,12-1,28-10,54-27,76-6,8-14,13-22,17-7,3-15,5-22,5-23,0-44,9-63,23-15,12-24,34-15,52,3,6,10,10,18,11,19,3,34-8,50-15,4-1,8-2,12-2,1,0,1-2,2-2,14,2,28-1,40,7,5-1,10-1,14-3,14-8,24-18,35-30,8-9,13-26,28-23,6,2,9,8,10,14,1,5,0,10-2,15-2,4-6,6-9,7-17,9-35,19-42,37-4,13-2,27,6,38,1,1-1,1,2,3,2,2,2,6,4,8,4,4,7,9,10,14,7,13,15,25,22,38,2,2,4,4,6,7,15,27,31,51,56,69,17,13,34,23,53,30,12,4,32,4,35-12-4-13-15-21-25-30v-2c-28-36-29-81-21-124,3-13,5-25,7-38,1-4,2-9,3-13,2-12-2-26-14-31-8-3-15,1-23,2-7,1-13-2-18-6-7-6-11-14-15-22-2-4-4-9-3-14,1-3,1-6,3-9,6-11,18-19,32-21,17-2,32,5,42,19,1,3,3,5,5,7,14,22,20,46,23,71,1,15,2,30,0,46-5,29-16,56-11,86,2,9,5,19,13,25,18,12,30,29,34,51,1,2,3,4,4,7,0,1,1,3,1,4,6,12,18,28,7,40-5,4-13,5-19,6-24,1-47-4-70-11-13-5-24-13-36-21-21-13-40-26-64-30-4,0-9,2-11,6-4,13,5,26,10,37,9,9,18,18,26,29,4,6,2,13-4,15-12,4-22-2-30-11-4-6-8-11-10-17-5-15-7-29-10-45-2-16-2-30-4-46-4-24-12-45-25-66l-6-15c-4-14-5-29-9-43l-2-1c-5-13-15-24-28-29-3-1-6-1-9,0-12,9-9,24-8,37,2,16,6,32,12,47,9,28,26,52,41,78,3,5,4,11,7,16,5,14,7,28,9,43v13c-1,5-3,9-6,13-4,5-11,5-16,3-13-5-18-19-24-31-2-2-4-4-5-7-9-18-17-35-24-53-3-6-4-13-13-14-1,0-3,2-4,4-1,8,0,16,4,23v4c1,8,6,14,8,21,5,12,11,22,18,33,7,13,16,24,27,35,7,8,15,18,9,29,4,42,35,76,71,96,13,7,28,12,43,9,4-4,4-10,1-15-1-2-2-5-3-8,2,0,5,0,7,1,6,3,11,7,17,10,30,18,58,36,91,48,12,4,25,8,38,5,1-1,3-3-2-6-9-5-18-10-27-14-2-1-3,0-5-1l-12-6c-39-15-78-32-108-64-8-9-16-23-5-34,6,1,11-2,17-3,16-2,31-6,46-11,26-8,52-1,77,7,16,6,32,15,37,33,1,4,0,7-5,10v2c-7,5-16,5-24,7-20,4-39,5-57,12-2,1-4,4-5,6-1,11,10,16,18,22,20,12,42,21,65,22,2,0,5-1,6-2,11-13,26-18,41-24,25-11,51-14,76-24,5-2,9-4,13-8,1-2,3-3,5-5,2-3,1-7,1-10-1-5-5-9-5-14,10-12,26-14,41-18,12-4,24-7,36-10,59-16,108-48,147-96,1-1,3-2,4-3,4-5,8-10,13-15,14-18,28-35,34-57,1-6,4-12,5-18,2-16,4-31,2-47s-4-32-4-48c-1-8,1-16,3-24,10-32,21-62,34-93,4-11,7-22,10-34,4-15,5-30,8-45,1-7,0-15-4-21-2-2-5-2-7,0-17,14-28,33-37,53-20,46-32,92-63,134-1,2-1,3-2,5-10,14-20,27-32,39-2,2-3,5-5,8-1,2-3,2-4,4-7,13-14,25-20,39-4,11-13,20-24,26l-3,3c-15,8-32,11-48,16-6,2-11,5-16,8-9,19-24,34-43,45-2,1-5,2-7,3-13,5-25,7-39,5-25-4-49-9-74-11-11-1-21-4-30-12-11-11-20-27-14-42,13-4,28-2,40,4,6,2,11,7,17,9,19,8,39,9,59,6,11-2,21-5,30-12,20-17,35-37,54-53,10-4,18-10,27-17,1-1,2-3,3-4,4-3,7-6,11-9,11-12,23-24,32-37,13-9,26-13,40-22,6-5,11-12,11-20,0-3-3-5-5-5-16,2-32-2-46,8-2,2-5,3-7,5l-8,8c-18,27-39,45-66,62-4,2-8,3-11,7-1,1-2,3-3,4-9,7-15,14-23,21-15,14-34,32-56,24-9-17-7-38-11-57-2-15,6-29,19-36,4-2,7-4,11-6,20-16,37-33,43-58,4-17-1-34-15-46v-3c-8-9-14-26-29-20-8,4-14,10-22,14-2,0-4,1-6,1-15-3-30-3-42,8-1,2-3,3-5,5-10,12-10,28-11,43-2,25-2,50,0,75,2,17,5,33,10,50,2,8-2,15-7,20-8,7-19,6-28,3-4-6-9-12-12-18-6-15-7-31-6-47,10-30,13-62,10-94,0-2-2-5-2-7,0-17-6-34-13-50-9-23-26-41-44-59-16-15-31-32-51-41-11-4-23-6-35-10-11-4-21-9-32-14-26-14-49-30-71-50-3-3-5-6-6-10,0-10,12-14,21-16,13-2,26-2,39,2,12,5,23,11,35,18,6,3,12,5,17,8,42,22,79,47,111,82,2,2,6,3,8,5,17,18,41,40,68,32,27-16,11-50-1-71-2-2-3-4-5-7-3-4-7-8-11-11-6-4-10-8-16-11-7-2-13-7-20-7-10,0-20,2-30-2-22-8-41-19-60-33-2-1-3-1-5-2-45-35-97-46-151-51-3,0-7-2-10-2-25-1-50-5-75-4-13,1-27,2-40,6-1,0-1,2-2,2-15,3-34,12-30,30,4,15,16,23,26,34,5,7,13,15,7,23-7,7-18,7-27,7-30,2-60-2-90,2-47,6-90,23-134,39-5,2-10,3-16,2v-2c22-19,46-31,73-38,33-10,65-12,98-15h11c13-2,26-1,39-3,3-1,9-2,9-6s-3-7-6-9c-10-5-21-8-31-12-13-4-27-5-41-5-5,1-11,1-16,1l-21,3c-15,3-29,6-43,11-40,14-77,35-108,65-19,20-40,41-41,69-1,16,18,22,32,20h0ZM1786,957c14-5,26-11,39-18,16-9,29-20,42-32,6-7,12-14,13-23,1-10-4-20,0-29,2-3,4-7,7-10,6-6,15-7,23-7,9,0,15,8,17,18,0,1,2,1,3,2,1,4-1,9-2,13-8,17-19,32-31,47-10,11-19,21-30,31-9,8-18,14-28,21-3,2-6,3-9,5-17,7-32,14-48,23-2,2-5,3-7,5-19,18-40,34-66,38-7,1-15,0-19-6-5-9-4-20,3-28,22-24,53-34,82-45,3-1,5-3,7-4,1-1,3-1,4-1h0Z"/>
  </g>
  <g class="cls-3">
    <path class="cls-1" d="M758,375c1-28,2-56,9-84,0-1,1-1,2-2,6,7,10,14,12,23,4,22,7,42,9,63,2,28,2,56,5,84,0,1,2,3,3,3,1-1,3-2,4-4,22-49,18-103,7-156-7-36-19-67-34-99-7-17-14-34-20-51-10-28-14-57-25-85-7-17-16-33-27-48-20-26-42-50-71-65-2-1-5-2-7-3-4,0-8-2-11,1-3,5,0,10,2,15,7,14,17,24,27,37,2,2,2,5,4,7,12,15,22,29,34,43,11,14,21,29,29,45,11,25,15,51,18,78,5,33,9,64,14,97,5,35,6,67,0,102-1,3-2,7-5,9-4-3-4-9-4-14-7-68-15-134-24-202-1-5,0-10,0-15v-12c-1-12-5-23-9-34-3-6-6-12-9-19-18-40-51-69-82-100-11-11-20-22-31-33-7-7-13-15-17-24-1-3-2-7,1-9,10-4,21,0,32,0,5,0,11-3,7-9-5-8-11-13-19-17-16-7-34-10-51-10-6-1-14-1-17,5-5,10-3,21-5,32-2,8-9,16-18,14-26-8-56-19-80-2,0,10,5,20,11,28,11,13,22,22,36,31,6,4,16,7,22,2-1-7-7-12-12-17-3-4-4-9-3-13l3-3c5-3,11-3,17-3,11,1,22,4,32,8,1,1,1,2,2,3-5,1-7,7-5,11s6,9,8,14c-4,5-11,7-11,13-1,9,8,14,15,19,3,2,6,3,9,5,16,7,33,11,48,19,5,3,16,6,16-1,1-23-20-38-33-56-2-4-4-8-5-12,7-6,16,2,23,4,37,27,57,69,76,109,9,19,20,36,27,55,2,7,6,15,3,23-3,0-4-3-6-5-3-4-6-8-9-13l-9-9c-14-20-31-34-47-51-2-2-5-3-7-5-1-1-3-1-4-2s-2-3-3-4c-14-9-26-19-42-24-3-1-7,0-9,2-5,7,1,15,5,21,16,32,34,65,35,102,0,2,0,4-2,5-2,0-3-2-4-3-7-12-17-20-24-31-28-48-60-88-92-131-9-7-16-15-24-23-16-14-32-27-47-42-6-8-14-17-10-27,1-6,6-11,12-13,18-6,35-17,40-36-5-18-26-26-43-27-14-1-28,1-41,5-15,5-25,17-33,30-18,15-39,27-52,47-6,10,3,20,10,26,11,8,22,12,34,20,3,2,5,7,2,10-9,7-20,11-31,8-8-1-15-5-20-12-3-5-5-10-9-15-12-15-34-13-48-2-29,22-50,48-78,71-12,10-26,12-40,16-14,10-30,17-46,25-3,2-5,5-6,9-2,14,9,27,21,33,7,3,15,3,22,5h7c27,4,54,5,81,4,8-1,16-2,25-3,27-6,51-12,76-22,5-2,11-2,17-4,9-2,16-8,19-17,2-9-2-16-8-24-5-8-5-19,3-26,6-5,13-9,20-11,8-2,16,0,23,5,15,11,25,26,28,44,2,13-6,23-15,31-19,15-41,22-62,33-52,25-110,22-166,19-3-1-6,1-9,2h-4c-20,6-40-1-58-11-2-1-2-3-4-4-19-10-34-23-49-38-3-4-6-7-9-11-8-11-16-24-10-37,5-13,20-18,32-26,8-4,17-3,26-4,4-1,8-2,11-4,11-7,21-16,25-28,3-12,5-24,0-36-1-2-2-4-4-6-10-11-24-14-35-23-4-16,1-34,15-43,3-1,7,0,9,2,9,11,12,26,19,39,1,3,3,7,4,11h2c5,11,11,21,20,28,2,1,3,2,5,3,8,4,18,4,26,0,2-1,4-2,7-3l3-3c16-10,33-13,50-19,27-11,53-23,73-44,2-3-1-7-4-9-6-4-13-3-20-4-14,0-27,1-41,4h-5c-22,5-42,13-63,20-8,2-16,3-24,2-2,0-4-2-6-2-7-3-11-10-13-18-5-27,4-57,30-69,10-1,18,7,28,10l21,6c7,2,15,2,22-2,6-4,11-10,9-17-13-8-28-14-44-18-2-1-5-2-7-3-8-2-16-4-23-7-1-1-2-3-1-4,7-13,15-24,18-38,5-17,13-38,0-53-7-6-18-5-26-2-20,8-32,26-40,45-1,2-2,4-5,3-5-3-5-10-6-15-1-12-1-23,1-35,2-13,5-25,4-37,0-1-1-3-2-3-11,1-15,12-20,20-1,2-2,5-3,7-2,5-2,10-3,15l1,1c-2,5-3,11-2,16,0,12,2,24,6,36v5c3,16,4,32,2,48-1,14-9,26-13,40-11,12-19,25-28,39-11,19-13,41-29,56-4,3-9,4-13,5-4,0-8-1-11-4-4-4-7-8-9-13-6-17-6-36-5-54,2-16,6-32,18-43,8-7,18-11,25-18,7-9,16-14,23-24,10-14,15-28,19-45,0-1,2-3,2-4,3-16,5-32,2-48,0,0-3-1-4,0-2,2-4,5-6,7-12,11-25,21-36,32l-1-1c-8,5-15,12-24,15-7,2-13,1-20-1-10,4-15,13-21,22-4,7-7,14-9,21-3,14-8,27-13,40-1,2-2,4-4,5-8,1-9-9-13-14v-3c-5-11-7-23-9-36-1-5-3-9-3-14,0-2-1-3-2-5v-3c-5-11-11-21-21-28-2-1-4-1-5-3h-2c-2-1-3-2-5-3-6-5-13-10-20-4-15,12-24,28-33,44-15,29-26,58-35,90-3,10-5,23-16,28-2-2-6-3-8-5-15-21-18-45-27-67-2-3-4-7-7-9-3,3-7,6-8,11-10,46-6,90,7,135,7,21,15,40,29,58,2,3,5,4,7,7,19,24,37,46,58,68,5,5,11,10,18,8,6-1,4-9,9-13,9,0,16,9,21,16,1,1,2,1,3,2,12,16,25,29,39,43,3,3,7,6,12,6,2-5,1-10,3-15,0-1-1-3-1-4,2-5,6-9,11-10,7-2,12,3,18,5,2,1,4,3,7,5,13,11,27,18,41,26,9,4,19,8,29,11,12,3,25,3,37,6,26,9,51,18,76,30,1,1,3,4,2,6-19,19-47,7-70,4-4,0-9-1-13-1-21-3-43-11-64-4-4,11-9,24-22,26-24-6-48-12-72-13-25-13-40-36-60-56-2-2-7-7-9-3-1,4,1,8,3,11,16,25,33,46,55,66,16,14,33,26,55,28,8,0,15-2,23-1,10,2,19,5,29,7,20,2,39-4,51-22,1-1,3-2,5-3,13-6,27,0,40,5,26,10,50,22,77,29,6,2,11,7,15,12-11,14-26,23-37,36-5,6-12,13-8,21,6,13,23,15,37,16,7,1,13,1,20,3,19,3,38,0,54-10,11-7,19-17,30-23,11-7,21-14,31-22,10-9,18-19,23-31,2-7,6-15,1-22-2-1-3-3-5-5-10-8-23-9-35-10-38,0-76,4-115,0-9-1-21-5-20-16,4-5,9-8,15-10,29-7,58-10,88-12,44-2,88,10,132-3,1,0,2,1,3,1,7-5,14-9,22-12,16-7,33-11,49-18,6-3,11-5,16-9,5-14,19-22,33-24,1,0,3,2,4,2,18,0,31,14,43,27,4,3,6,7,10,11,8,12,9,26,8,40-1,6-3,12-8,17-1,1,0,2-1,3-5,7-13,12-21,10-17-6-32-14-51-10s-37,4-56,6c-4,1-8,3-12,4-8,3-15,8-23,13-7,5-13,11-20,16-17,17-31,35-41,57-2,5-4,10-3,15,3,9,12,16,22,18,20,2,38-8,53-21,7-8,14-15,22-22,2-1,5-3,7-5,2-1,3-1,5-3,2-1,4-1,6-2,1,0,1-2,2-2,10-2,17-6,27-3,9,3,17,9,26,12,4,2,8,4,13,5,9,1,16-1,25-3h9c3,0,4,6,10,3,3-2,7,1,10,2,12,6,20,17,33,21,8,2,16-1,22-6s8-12,10-19c13-44,5-86-3-131-3-12-6-23-3-35,6-1,11,1,15,5,7,8,12,16,18,25,2,4,3,7,5,11,32,54,54,109,62,170,1,11,1,23-3,33-1,1-3-1-4-2-2-12-7-22-10-34-5-27-10-52-17-78-3-8-5-16-8-23-3-6-5-12-8-18-3-9-7-17-12-26l-3-3c-2-5-5-10-11-11-1,0-3,1-3,3,2,22,7,43,11,66,9,42,13,81,20,123,3,22,4,43,12,64,0,0,2,0,2,1,2,11,5,23,14,30,9,1,18-4,24-11,1-1,1-4,2-5,6-7,10-15,14-23,11-27,17-55,19-84h0ZM-141-7c-11-9-19-21-30-31-7-6-17-1-19,7-3,16,1,31-1,47,0,3,1,6-1,9h-2c-24-41-21-88-14-133,1-6,7-10,12-12h5c8-2,17-7,25-2,10,7,14,17,20,27,2,5,8,7,12,3,6-7,11-14,19-19,6-3,13,0,15,7,8,31,5,61,1,91,0,6-2,11-5,17-4,8-13,11-20,5-6-5-12-10-17-16h0Z"/>
  </g>
</svg>