<?xml version="1.0" encoding="UTF-8"?>
<svg id="Layer_2" data-name="Layer 2" xmlns="http://www.w3.org/2000/svg" viewBox="0 0 1920 1080">
  <defs>
    <style>
      .cls-1 {
        fill: #ff585d;
      }

      .cls-2 {
        fill: #22b573;
      }

      .cls-3 {
        opacity: .79;
      }
    </style>
  </defs>
  <g class="cls-3">
    <path class="cls-2" d="M1079,899c-7-1-13-2-19-6-6-5-9-13-7-20,5-12,14-21,24-30,1,0,2,0,3-1,3-3,7-5,11-7,22-16,41-31,56-53,4-7,7-14,6-22-1-7-7-12-13-12-15-2-25,10-37,19-17,13-33,27-49,42l-12,9c-12,8-25,15-39,14-9-6-14-16-21-24-3-4-6-9-10-13-2-1-3-2-5-3-20-6-41-4-61,1-14,8-24,26-20,42,4,11,13,17,22,24,14,9,30,6,45,8,13,2,17,13,22,24l2,1c3,9,10,15,16,22,4,4,8,7,14,8,9,2,17,0,26,2,6,2,12,2,18,4s15,6,11,13c-12,20-38,19-59,21-21-4-42-20-47-42,4-11-3-22-12-29-1-1-3-1-5-1-15-8-30-13-47-13-6,0-12-2-18-5-6-4-11-10-16-16s-6-13-8-20c-2-11,3-20,10-28,10-9,19-19,23-32,1-5,0-10-2-14-1-1-3-2-3-2-4-3-10-1-14,2-11,9-22,15-32,25-1,1-2,3-3,5-11,23-12,49-29,69-1,1,0,2-1,3-4,6-10,12-17,9-18-9-41-13-58,2-11,10-14,25-17,40-2,9-4,19,2,27,4,5,11,8,18,5,3-2,6-5,6-9-1-11,2-22,13-27,13-5,26-6,40-5,1,0,4,1,3,3,0,1-2,1-3,2-2,2-3,4-6,6s-5,5-4,8c3,14-11,20-19,27-4,2-9,5-8,10,3,7,10,11,17,10,20,0,40-1,59-8,1-1,3-2,5-3,3-2,5-5,7-7,1-2,1-5,2-8,0-2-1-5-1-7-1-2-2-3-2-5-3-5-8-10-11-15-1-3-2-7-1-11,4-11,15-16,26-14,14,3,24,12,31,24,6,8,11,14,19,19s14,11,23,12c6,1,14,5,10,13-2,3-4,5-7,6-18,7-37,10-56,13-29,4-56,5-84,7-6,1-12,3-17,7-1,1-1,2-3,3-3,4-6,9-4,14,8,19,24,38,18,59-1,4-7,5-11,4-15-6-33-7-43-22-1-1-2-1-3-2-6-8-11-16-16-23-10-14-13-31-11-47-6-18-6-36-5-55,2-20,4-41,19-56,2-1,3-3,5-5,7-6,15-10,24-12,4-1,7-4,11-6,7-5,11-11,17-17,14-14,18-36,11-54-1-2-2-5-3-7-10-15-31-13-45-4-10,7-15,18-26,24-9,5-19,9-29,11-6,1-13,1-19,2-5,2-9,6-12,11-10,19-17,39-20,61,0,1-1,3-2,5-2,3-6,6-10,5-8-1-11-7-15-13-4-9,0-18,5-25,11-13,19-28,18-45-1-3-1-6-2-9-3-8-8-14-14-21-1-1-2-1-3-1-2-2-5-4-7-6-13-6-25-14-38-20-3-2-5-4-8-6-9-4-17-9-25-14-1-1-3,0-4-1-17-11-34-20-52-29-22-10-45-10-69-14-10-1-19,1-28,6-5,4-9,10-7,16,3,8,10,13,18,17,9,3,16,8,24,12,0,0,1,1,1,2,25,18,40,42,53,69l9,21c5,19,12,36,16,55,3,9,7,19,16,23,5,2,11,3,17,1,8-4,14-12,23-14,17-2,33,10,41,24,4,19-11,37-27,46-10,6-21,5-31,1h-3c-9-4-17-9-24-16-1-1-3-1-4-2-12-12-22-23-31-37-10-15-18-29-23-45-12-35-17-75-45-100-14-3-26-9-37-18-1-1-3-1-4-2-13-17-26-31-38-49-4-6-8-12-6-18,1-1,1-3,2-4,4-4,8-7,12-10,14-8,30-8,46-11,16-2,31-3,46,2,8,2,17,3,26,5,16,3,31,3,46,2,6-1,11-2,15-6,6-9-2-18-7-25-11-14-27-19-42-29-4-3-7-8-4-13,5-8,14-10,23-8,19,4,28,22,38,37,10,16,15,33,24,50,8,14,18,26,30,37,14,11,29,20,41,33,8,10,14,20,23,28,2,1,5,3,7,5,13,8,30,17,43,7,4-13-4-24-11-35-1-1-1-2-1-3s-1-1-2-1v-2c-15-17-26-34-45-48-23-16-45-30-65-49-11-12-18-26-23-42-1-6-1-12,2-18,7-10,20-11,30-4,27,21,48,43,73,65,3,3,7,1,10-1,1-1,2-4,1-6-2-7-7-12-11-18-16-20-34-34-55-50-7-5-14-8-22-12-6-5-16-8-16-16-2-24-17-42-36-56-18-12-35-20-55-23-12-1-26-2-35,7-5,6,0,14,5,19-2,1,4,6-5,3-30-8-56-19-86-28-15-4-29-6-44-5-4,1-9,1-9,5,0,6,8,8,13,9,39,11,77,18,114,33,14,6,29,15,34,31,2,7-1,14-8,17-12,5-22,11-33,19-7,5-12,12-19,17-21,12-45,15-68,12-8,0-16-2-22-8-1-1-2,0-3-1-7-6-14-13-14-23,1-8,7-14,14-18,13-6,26-12,39-19,5-3,10-5,14-9l6-6c4-5,3-11-1-15l-3-3c-20-12-42-16-65-17-3-1-7-1-9,2-9,16-23,26-36,37-8,7-17,12-26,16-7,4-14,7-21,10-11,5-21,12-28,23-3,5-3,10-2,15,2,4,6,6,7,10,3,13-11,19-21,24-33,15-68,24-98,45-43,38-84,82-99,138-5,38,6,76,16,112,0,44-23,83-36,125-4,15-7,30-7,45,0,6,2,11,6,16,12,2,22-7,31-15,3-4,6-7,9-11,15-22,22-44,31-68,9-22,19-41,33-61,12-16,25-30,33-48,0-1,2-1,2-2,3-9,4-18,7-27,5-18,21-30,38-37,13-5,29-6,39-16,4-19,14-36,29-49,2-1,3-1,5-3,1-1,2-1,3-1,1-1,1-2,2-2,6-2,12-5,18-5,32-2,63-2,95-4,5-1,10-1,15,3,13,10,28,18,32,35,0,3-1,5-3,7-9,6-20,5-30,5-4,1-9,0-13-2-1,0-1-2-2-2l-9-3c-2-1-5,0-7,0-22,1-45,0-65,14-3,3-7,5-10,8-6,8-10,17-15,26-1,2-3,3-4,5,0,1-1,2-1,3-1,2-2,3-4,5-1,1-1,2-1,3-1,2-2,3-4,5-1,1,0,2-1,3-4,3-5,9-11,9-20,18-38,38-51,62-10,9-23,13-35,18-6,3-10,8-12,15-1,5,1,10,6,10,12,0,24,2,37-1,20-4,28-22,38-39,5-7,9-14,16-18,29-18,43-45,63-71,7-8,17-14,28-14,6-1,12,4,15,10,8,15,14,29,22,43,4,7,4,14,3,22-1,3-2,5-4,8-3,5-9,9-13,14-17,18-31,40-28,66,2,10,8,19,17,25l1,2c9,6,16,11,24,18s19,5,27-1c8-7,15-14,26-16,4,0,8-1,12-2h4c17-6,32-21,29-41-10-51-33-90-63-133-4-6-5-13-2-19,6-10,20-14,31-8,19,11,31,31,39,51,6,49,25,95,59,132,9,10,21,15,32,22,13,8,26,14,39,20,16,7,31,13,48,15,6,1,12-1,18-2,36-3,71,6,103,22,2,1,5,1,7,2,9,6,22,12,18,24-1,2-2,3-3,5-5,6-12,9-18,13-2,1-5,2-7,3-13,4-27,5-41,1-16-5-31-8-48-12-11-2-22-2-33-6h-4c-13-5-26-8-38-14-14-7-28-13-42-20-19-9-40-16-61-14-9,0-17,5-24,12-7,8-8,19-3,29l3,3c7,13,16,23,28,32,1,1,3,0,4,1,14,9,31,12,47,11,6-1,11-5,17-6,4,0,8-1,12-1,9,1,17,1,26,2s17,3,25,6c25,10,49,17,75,22,21,3,42,1,63-2h8c4-1,9-1,13-2h8c17-3,34-4,51-6,29-5,59-12,79-35,15-25-11-46-26-64-6-7-8-17-1-23,18-14,40-11,61-13,19-2,36-5,55-10,30-7,55-21,83-31,7-2,15-6,22-3v2c-14,17-34,27-53,36l-9,3c-38,9-74,12-112,21-6,1-17,2-17,11,7,11,21,16,34,19,25,6,49,4,73-2,38-10,71-29,100-56,13-12,23-25,34-40,5-7,7-15,10-22,5-13,6-28-2-40-6-9-17-13-27-13h0ZM120,718c-15,9-29,18-43,30-10,10-20,19-26,32-3,6-5,13-3,20,1,1,2,3,3,6,0,1,1,1,2,2,3,6,3,13,1,19-4,9-16,12-25,11-8-1-13-7-17-13-3-5-6-8-7-13-3-14,5-27,11-39,10-19,21-37,36-53,12-12,24-24,40-30,12-10,25-19,35-33,11-17,25-31,45-36,6-1,13,1,17,6,9,15,5,31-5,44-18,21-40,36-64,47h0Z"/>
  </g>
  <g class="cls-3">
    <path class="cls-1" d="M885,588c5-2,9-1,14-1,8,1,14,9,12,17-5,13-17,22-28,31-1,1-1,2-2,3-28,18-52,37-72,63-11,14-27,29-19,47,5,3,11,3,16,0,21-14,38-30,55-48,2-2,5-4,8-6,1-1,2-3,3-4,3-2,5-4,8-6,1-1,2-3,3-4,24-17,45-41,75-41,6,7,11,14,15,22h2c2,11,13,15,22,16,18,1,36,0,53-5,2-1,4-2,7-3,7-4,12-9,17-15,4-6,9-12,8-19-4-26-34-34-57-32-6,1-12-1-18-4-3-6-6-12-8-18-1-2-3-3-4-5,0-1,0-2-1-3-6-9-14-17-24-17-12-1-25,0-37,1-2,0-3-2-5-2-6,1-13,0-19-2-4-9,7-15,13-18,21-11,44-17,67-15,10,1,18,6,26,12,8,7,14,17,10,28-3,6-1,14,5,18,13,8,26,13,41,15,10,2,21,0,30,5,14,8,22,22,19,38-4,19-23,26-37,37-9,8-23,19-17,32,9,7,19-2,28-6,5-2,9-4,14-6,3-2,6-3,9-5,15-9,23-24,33-39,11-15,24-26,39-35,10-5,18,3,26,8,1,1,3,0,4,1,13,9,28,9,43,5,12-3,19-13,26-24l6-6c5-8,8-17,5-26-2-4-6-7-10-8-5-2-12-2-14,4-4,9-7,17-17,20-16,4-31,1-46-3-2-1-4-3-6-4,4-2,9-3,13-5s6-5,8-11c2-8,13-11,22-13,6-1,13-3,14-9,1-7-6-9-11-11-16-5-32-7-49-9-7-1-14,1-21,3-7,1-15,4-19,11-2,4,0,9,1,13,1,7,8,12,7,20-1,5-5,9-9,11-6,3-12,4-18,4-5,0-10-2-14-4-13-8-19-21-29-33-2-2-3-5-6-7-10-7-20-12-33-14-2-1-4-3-4-5,0-3,2-6,6-8,14-6,28-6,43-8,14-1,27-1,41-2,27-1,54,5,81,8,11,1,31,0,32-15-6-12-8-25-13-38,0-1,1-1,1-2-2-6-4-13,2-17,17-1,31,8,45,17,12,9,18,22,25,35,1,1,0,3,1,4,8,11,7,23,6,35-1,4-3,8-3,12-1,28-10,54-27,76-6,8-14,13-22,17-7,3-15,5-22,5-23,0-44,9-63,23-15,12-24,34-15,52,3,6,10,10,18,11,19,3,34-8,50-15,4-1,8-2,12-2,1,0,1-2,2-2,14,2,28-1,40,7,5-1,10-1,14-3,14-8,24-18,35-30,8-9,13-26,28-23,6,2,9,8,10,14,1,5,0,10-2,15-2,4-6,6-9,7-17,9-35,19-42,37-4,13-2,27,6,38,1,1-1,1,2,3,2,2,2,6,4,8,4,4,7,9,10,14,7,13,15,25,22,38,2,2,4,4,6,7,15,27,31,51,56,69,17,13,34,23,53,30,12,4,32,4,35-12-4-13-15-21-25-30v-2c-28-36-29-81-21-124,3-13,5-25,7-38,1-4,2-9,3-13,2-12-2-26-14-31-8-3-15,1-23,2-7,1-13-2-18-6-7-6-11-14-15-22-2-4-4-9-3-14,1-3,1-6,3-9,6-11,18-19,32-21,17-2,32,5,42,19,1,3,3,5,5,7,14,22,20,46,23,71,1,15,2,30,0,46-5,29-16,56-11,86,2,9,5,19,13,25,18,12,30,29,34,51,1,2,3,4,4,7,0,1,1,3,1,4,6,12,18,28,7,40-5,4-13,5-19,6-24,1-47-4-70-11-13-5-24-13-36-21-21-13-40-26-64-30-4,0-9,2-11,6-4,13,5,26,10,37,9,9,18,18,26,29,4,6,2,13-4,15-12,4-22-2-30-11-4-6-8-11-10-17-5-15-7-29-10-45-2-16-2-30-4-46-4-24-12-45-25-66l-6-15c-4-14-5-29-9-43l-2-1c-5-13-15-24-28-29-3-1-6-1-9,0-12,9-9,24-8,37,2,16,6,32,12,47,9,28,26,52,41,78,3,5,4,11,7,16,5,14,7,28,9,43v13c-1,5-3,9-6,13-4,5-11,5-16,3-13-5-18-19-24-31-2-2-4-4-5-7-9-18-17-35-24-53-3-6-4-13-13-14-1,0-3,2-4,4-1,8,0,16,4,23v4c1,8,6,14,8,21,5,12,11,22,18,33,7,13,16,24,27,35,7,8,15,18,9,29,4,42,35,76,71,96,13,7,28,12,43,9,4-4,4-10,1-15-1-2-2-5-3-8,2,0,5,0,7,1,6,3,11,7,17,10,30,18,58,36,91,48,12,4,25,8,38,5,1-1,3-3-2-6-9-5-18-10-27-14-2-1-3,0-5-1l-12-6c-39-15-78-32-108-64-8-9-16-23-5-34,6,1,11-2,17-3,16-2,31-6,46-11,26-8,52-1,77,7,16,6,32,15,37,33,1,4,0,7-5,10v2c-7,5-16,5-24,7-20,4-39,5-57,12-2,1-4,4-5,6-1,11,10,16,18,22,20,12,42,21,65,22,2,0,5-1,6-2,11-13,26-18,41-24,25-11,51-14,76-24,5-2,9-4,13-8,1-2,3-3,5-5,2-3,1-7,1-10-1-5-5-9-5-14,10-12,26-14,41-18,12-4,24-7,36-10,59-16,108-48,147-96,1-1,3-2,4-3,4-5,8-10,13-15,14-18,28-35,34-57,1-6,4-12,5-18,2-16,4-31,2-47s-4-32-4-48c-1-8,1-16,3-24,10-32,21-62,34-93,4-11,7-22,10-34,4-15,5-30,8-45,1-7,0-15-4-21-2-2-5-2-7,0-17,14-28,33-37,53-20,46-32,92-63,134-1,2-1,3-2,5-10,14-20,27-32,39-2,2-3,5-5,8-1,2-3,2-4,4-7,13-14,25-20,39-4,11-13,20-24,26l-3,3c-15,8-32,11-48,16-6,2-11,5-16,8-9,19-24,34-43,45-2,1-5,2-7,3-13,5-25,7-39,5-25-4-49-9-74-11-11-1-21-4-30-12-11-11-20-27-14-42,13-4,28-2,40,4,6,2,11,7,17,9,19,8,39,9,59,6,11-2,21-5,30-12,20-17,35-37,54-53,10-4,18-10,27-17,1-1,2-3,3-4,4-3,7-6,11-9,11-12,23-24,32-37,13-9,26-13,40-22,6-5,11-12,11-20,0-3-3-5-5-5-16,2-32-2-46,8-2,2-5,3-7,5l-8,8c-18,27-39,45-66,62-4,2-8,3-11,7-1,1-2,3-3,4-9,7-15,14-23,21-15,14-34,32-56,24-9-17-7-38-11-57-2-15,6-29,19-36,4-2,7-4,11-6,20-16,37-33,43-58,4-17-1-34-15-46v-3c-8-9-14-26-29-20-8,4-14,10-22,14-2,0-4,1-6,1-15-3-30-3-42,8-1,2-3,3-5,5-10,12-10,28-11,43-2,25-2,50,0,75,2,17,5,33,10,50,2,8-2,15-7,20-8,7-19,6-28,3-4-6-9-12-12-18-6-15-7-31-6-47,10-30,13-62,10-94,0-2-2-5-2-7,0-17-6-34-13-50-9-23-26-41-44-59-16-15-31-32-51-41-11-4-23-6-35-10-11-4-21-9-32-14-26-14-49-30-71-50-3-3-5-6-6-10,0-10,12-14,21-16,13-2,26-2,39,2,12,5,23,11,35,18,6,3,12,5,17,8,42,22,79,47,111,82,2,2,6,3,8,5,17,18,41,40,68,32,27-16,11-50-1-71-2-2-3-4-5-7-3-4-7-8-11-11-6-4-10-8-16-11-7-2-13-7-20-7-10,0-20,2-30-2-22-8-41-19-60-33-2-1-3-1-5-2-45-35-97-46-151-51-3,0-7-2-10-2-25-1-50-5-75-4-13,1-27,2-40,6-1,0-1,2-2,2-15,3-34,12-30,30,4,15,16,23,26,34,5,7,13,15,7,23-7,7-18,7-27,7-30,2-60-2-90,2-47,6-90,23-134,39-5,2-10,3-16,2v-2c22-19,46-31,73-38,33-10,65-12,98-15h11c13-2,26-1,39-3,3-1,9-2,9-6s-3-7-6-9c-10-5-21-8-31-12-13-4-27-5-41-5-5,1-11,1-16,1l-21,3c-15,3-29,6-43,11-40,14-77,35-108,65-19,20-40,41-41,69-1,16,18,22,32,20h0ZM1786,957c14-5,26-11,39-18,16-9,29-20,42-32,6-7,12-14,13-23,1-10-4-20,0-29,2-3,4-7,7-10,6-6,15-7,23-7,9,0,15,8,17,18,0,1,2,1,3,2,1,4-1,9-2,13-8,17-19,32-31,47-10,11-19,21-30,31-9,8-18,14-28,21-3,2-6,3-9,5-17,7-32,14-48,23-2,2-5,3-7,5-19,18-40,34-66,38-7,1-15,0-19-6-5-9-4-20,3-28,22-24,53-34,82-45,3-1,5-3,7-4,1-1,3-1,4-1h0Z"/>
  </g>
</svg>