<?xml version="1.0" encoding="UTF-8"?>
<svg id="Layer_2" data-name="Layer 2" xmlns="http://www.w3.org/2000/svg" viewBox="0 0 2121.24 1631.26">
  <defs>
    <style>
      .cls-1 {
        fill: #ff585d;
      }

      .cls-2 {
        fill: #22b573;
      }

      .cls-3 {
        opacity: .79;
      }
    </style>
  </defs>
  <g class="cls-3">
    <path class="cls-2" d="M1089.24,1283.15c-6,0-11.12.15-16.12-2.85-5-4-11.76-8.09-10.76-14.09.51-6.58,7.91-10.73,11.85-15.9s6.68-11.33,11.62-15.28c7.61-5.63,16.02-9.58,23.16-14.98s12.8-13.15,19.57-19.41,15.81-10.02,21.72-17.57c7-10,12.23-20.58,9.23-32.58-2-6-7.27-6.51-12.27-6.51-6.71,0-12.01,1.41-17.67,5.35-5.3,3.69-10.85,7.58-16.16,11.45-6.91,5.43-13.12,11.5-19.47,17.36-6.44,5.95-11.75,13.09-18.2,18.86s-14.55,9.89-21.69,14.88c-7.03,4.92-14.24,9.93-22.47,13.42-4,2-9.48.52-14.48.52-4.95-5.44-8.91-11.65-13.24-17.34s-10.76-9.27-15.31-14.83c-6.11-3.05-10.87-6.7-17.51-7.31s-13.4-1.87-20.15-1.15-13.14,3.18-19.68,4.16c-6,1-7.83,6.23-11.83,10.23-5,6-6.85,13.44-9.85,20.44-2,7,1.05,11.39,5.05,17.39.73.85-2.25,2.85-1.6,3.76,3,6,9.35,6.25,14.35,10.25,6,3,11.59,8.57,17.59,9.57,9,1,17.98-2.4,25.98-.4,4,2,8.7.68,11.7,3.68,4.42,6.38,8.01,12.75,11.56,18.89s5.62,14.05,10.72,19.65c1,1,4.9-.69,5.9.31,3,4,6.34,5.89,10.34,6.89,7,2,13,.32,20,1.32,5,1,9.62,2.77,14.62,3.77s9.19.08,13.19,2.08c2,1,8,4.38,7,6.38-2.78,8-10.55,13.2-17.55,16.64-6.58,3.24-15.09,2.42-23.09,3.36s-16.02,3.77-23.18,4.09c-6.97-1.99-13.2-7.19-19.33-11.47s-11.57-9.2-15.18-15.55-5.01-13.01-4.35-20.98c1-7-3.98-14.93-9.98-18.93-8-4-16.97-4.32-24.97-8.32-2-1-3.07.49-5.07.49-1,0-3-2.98-4-2.98-5,0-8.84,1.19-13.84,2.19-5,0-9.47-5.13-14.47-7.13-11-5-20.37-12.71-25.37-23.71-2.5-6.49-1.21-13.74.29-19.86s4.05-12.72,8.55-17.73c9-8,17.23-16.4,22.23-27.4,3-7,2.12-12.95-3.88-16.95-2-1-3.78-1.48-5.78-1.48-6.99,3.49-14.77,6.31-21.14,10.8s-12.64,9.82-18.15,15.33c-1,1-2.34,3.78-3.34,5.78-3.01,7.69-2.36,16.8-5.18,24.53s-8.72,14.18-12.34,21.59-5.96,15.35-11.24,21.96c-4,4-9.18,9.38-14.18,6.38-9.03-3.51-18.6-4.36-27.88-5.1-9.22-.74-17.8-.3-26.78,5.18-10,7-12.91,19.39-15.91,30.39,0,1-.34,2.6-.34,3.6-2,5-3.61,9.15-5.61,14.15-1,6,.09,12.41,4.09,16.41,3,2,6.79,7.5,11.79,6.5,2-1,3.46-3.87,5.46-3.87,1-1,1.83-.72,3.83-1.72,1-1,.76-4.18.76-6.18-1-8-.25-17.1,6.75-22.1,7-4,14.63-5.69,21.63-6.69,8,0,17.77-2,24.77,3-5,5-9.38,7.74-12.38,14.74,3,11-8.81,14.62-17.81,20.62-4,2-7.77,7.87-5.77,13.87,2,8,9.08,7.84,16.08,7.84,10-1,19.96.2,29.96-.8,5-1,11.39.65,16.39-.35,1,0,1.49-6.02,2.49-6.02,8-1,15.01-3.89,18.01-10.89,1-3,2.13-6.84,2.13-9.84-1-2-5.98-3.67-6.98-5.67-3-4-3.6-7.93-6.6-11.93-3-5-3.59-10.07-.59-15.07,4.97-6.96,12.8-10.36,20.38-10.14,7.66.22,14.53,5.33,20.05,10.35,2,2,2.9,4.55,4.9,6.55,4.24,6.2,10.2,10.82,14.93,15.96,4.99,5.42,11.39,8.82,17.57,12.58s11.62,8.53,19.19,10.18c3,1,2.68,1.74,2.68,3.74,0,7-5.04,7.66-11.04,9.66-7.72,1.98-14.18,8.66-21.84,10.26s-16.46-2.09-24.22-.85-15.07,6.04-22.91,6.92-15.99-2.42-23.89-1.89-15.48,5.23-23.44,5.43c-8,0-15.68-1.99-22.68,2.01-4,3-7.56,5.98-10.56,9.98-3,5-1.96,8.04.04,12.04,3.53,6.55,6.99,12.84,9.75,19.4,2.72,6.46,1.97,13.85,3.46,21.29,0,4,5.15,9.3,3.15,12.3-3,4-9.85,1.34-13.85.34-5.98-1.99-11.86-3.77-17.6-6.01s-10.34-5.52-15.35-9.53c-8-7-14.94-15.09-19.94-25.09-1-2-4.95-1-5.95-3-3.94-6.9-4.02-14.66-5.29-21.93s-5.3-14.51-4.29-22.12c-3-10-2.93-21.27-2.93-31.27.5-6.01,2.95-11.9,3.57-17.91s1.1-11.91,2.1-17.9c2-7,2.66-14.48,5.66-21.48,3.98-7.46,8.61-15.79,15.19-20.9s15.72-7.54,24.27-8.54c7.6-3.55,14.55-7.18,20.37-12.77s8.24-13.72,13.66-20.13c1-2,4.65-3.12,5.65-5.12,3.01-7.03.21-14.59-.93-22.25s-2.6-13.93-6.09-20.41c-9-6-18.84-4.93-29.84-2.93-2,1-3.68.63-5.68,1.63-5.48,4.48-12.62,6.59-17.59,11.2s-9.73,8.32-16.26,11.33c-6.55,2.52-11.87,8.23-18.55,9.1s-14.16-3.44-21.11-2.45c-6,2-7.68,8.99-10.68,13.99-4.98,8.47-8.29,17.03-11.53,25.75s-9.07,16.86-11.08,26.4c-1,4-2.84,6.87-5.84,8.87-10,4-17.49-4.41-19.49-13.41-2-11,7.19-20.06,14.19-28.06,4-5,6.83-10.64,8.95-16.52,2.13-5.88,6.23-12.23,5.73-18.73-.99-8.27-5.98-15.42-10.37-21.28s-10.3-11.64-16.75-16.03c-6.28-4.28-14.46-5.82-21.06-9.46-2-1-.36-5.88-2.36-6.88-6.85-4.16-15.74-4.42-22.21-8.41-6.72-4.15-12.6-9.38-19.15-13.5s-13.65-7.45-20.26-11.73c-6.4-4.15-11.05-11.24-17.71-15.68-5-3-10.51-1.45-15.51-4.45-6-3-11.14-5.87-17.14-7.87-7-1.5-14.02-2.95-21.02-4.2s-14.07-2.07-21.07-3.57c-6.33-.97-13.55-1.36-19.57.24-6.35,1.69-12.46,5.56-14.52,12.75-4,11,8.92,20.63,17.92,23.63,8.96,3.49,16.32,8.65,23.05,14.75s12.6,13.28,18.63,20.31c5.09,6.66,9.16,13.57,13.08,20.52s6.06,15.02,9.12,22.52,7.98,14.32,10.36,22.15,4.71,15.55,6.65,23.55,4.5,15.63,6.27,23.7c2,11,5.15,19.33,14.15,25.33,5,3,9.88,5.25,14.88,4.25,8-2,12.44-7.1,20.44-9.1,5-1,8.75-.81,12.75,1.19,10,5,19.59,9.25,23.59,20.25,2.53,8.59,4.49,16.89.03,23.57s-12.9,10.84-18.83,15.79c-7.64,6.11-16.28,6.76-24.93,5.13s-17.09-4.81-24.45-9.72c-6.22-4.26-12.56-8.04-17.38-12.94-5.04-5.13-7.49-12.39-11.71-18.23s-9.6-10.38-13.56-16.65c-1-1-.56-2.57-1.56-3.57-4-6-4.23-13.45-6.23-19.45,0-1-3.95-.36-3.95-1.36-3-6.33-5.17-12.99-6.87-19.66s-4.76-13.16-6.14-19.96,1.15-14.41-.85-21.06c-1.65-6.93-7.33-12.87-9.63-19.77s-.6-15.92-4.48-21.9-10.52-10.87-16.91-14.9c-7.48-1.99-14.03-5.73-20.64-9.46s-12.9-7.24-17.91-13.26c-4.05-5.56-7.47-11.1-11.39-16.42s-10.45-8.44-14.9-13.88c-6-9-16.11-21.39-9.11-32.39,3-4,8.19-7.71,12.19-8.71,8.36-3.01,17.64-2.16,26.23-3.9s16.93-5.12,25.79-5.28c8.67-.16,17.84-1.59,26.72.06,9.21,1.64,17.74,6.2,26.66,8.14,9.11,1.98,17.93,5.83,27.03,6.92,9.09,1.09,18.37-1.88,27.76-2.89,4-1,10.63-.89,11.63-5.89,1.52-7.6-.89-14.75-5.36-20.3s-10.75-9.82-15.69-14.26-12.96-4.12-18.64-7.17-7.99-9.15-10.02-16.27c3-12,17.85-14.42,27.85-10.42,3,2,6.33,4.33,9.33,6.33,5.49,5.99,10.14,12.7,14.26,19.31s5.24,14.92,8.24,22.43c2,3,3.65,4.58,4.65,8.58,2.54,6.1,5.04,12.31,7.84,18.41,2.71,5.9,9.03,9.7,12.48,15.61,2,2-.34,6.63.66,9.63,1,1,3.05,1.91,4.05,2.91s2.05,1.97,3.05,2.97c7,8,13.52,15.17,21.52,21.17,6.54,4.25,10.76,10.68,15.8,15.83,5.23,5.35,9.55,11.19,14.08,17.11,4.44,5.81,11.29,9.82,15.95,15.82,5,6,9.4,14.15,16.4,18.15,2,1,6.58-.95,8.58.05,6,3,11.7,5.58,17.7,4.58,1,0-1.12-6.24,1.88-5.24,5-10,.2-19.29-5.8-28.29,0-1,1.74-2.04,1.74-3.04-4.04-6.56-9.94-11.45-14.36-17.5s-7.55-12.8-12.01-19.24c-5-7-10.82-12.02-16.82-19.02-7-7-15.6-12.8-23.6-19.8-6.15-4.18-13.48-6.84-19.03-11.56-5.67-4.83-11.95-9.16-16.74-14.68-4.83-5.58-8.92-12.02-12.6-18.43s-7.19-13.08-9.43-20.29c-2-7,.4-13.1,5.4-20.1,6-8,15.31-11.26,23.31-7.26,5,4,7.47,9.3,12.47,13.3,6.29,5.96,11.03,13.14,16.99,18.99s15.48,8.48,21.44,14.56c5.85,5.96,10.48,13.18,16.45,19.48,3,2,6.48,5.49,9.48,5.49,2,0,.26-5.82,2.26-4.82,1-8-2.44-13.69-6.44-19.69-4.46-6.01-8.72-12.1-13.49-17.36-4.96-5.48-13.03-7.62-18.34-12.47-5.39-4.92-10.3-10.08-16.06-14.53s-11.55-8.53-17.64-12.67c-5.92-4.02-11.59-8.63-17.88-12.56-2-2-3.98-5.85-3.98-7.85-.66-7.56-2.2-14.98-5.02-21.6s-6.3-13.79-11.02-19.45-11.29-9.7-17.3-14.04c-6.1-4.15-13.15-6.91-19.67-10.46-6.63-3.61-12.87-7.73-19.81-9.96s-14.47-3-21.87-2.99-15.48-2.25-22.74.76c-1,0-5.95,3.56-5.95,6.56-1,6,5.46,9.71,9.46,13.71,1,1,1.48,4.5,1.48,5.5-1,1-4.98-.02-6.98-.02-7.35-2.58-15.34-3.36-22.58-6.07s-13.42-8.5-20.7-11.13c-7.31-2.65-14.18-6.8-21.57-9.12-7.39-2.33-16.21.41-23.78-1.37-7.5-1.76-14.46-7.82-22.23-8.82-8,0-17.76.35-23.76,7.35,2,6,8.55,7.34,13.55,8.34,6.93,2.31,14.08,3.09,20.87,4.92,6.93,1.88,13.68,4.1,20.61,5.87s13.31,5.14,20.3,7.13c7.7,1.67,15.06,4.14,22.5,6.45,7.47,2.32,14.6,4.91,21.73,8.26s14.94,4.96,21.51,9.57c4.41,3.43,11.19,8.77,14.11,14.77s1.18,13.21-4.94,18.31c-9.02,4.01-15.83,11.23-23.97,16.37s-16.64,9.43-24.13,15.92c-6,4-12.83,9.17-19.83,11.17-5,1-10.6-.15-15.6.85-7.56,1.01-15.49-.36-23.3-.38s-14.59-1.13-22.03-4.1c-5.88-2.94-12.67-6.13-17.65-11.36s-7.4-10.62-5.36-18.26c1-1,1.42-2.67,2.42-4.67,3-3,5.39-4.75,8.39-6.75,6.61-2.64,12.14-7.38,18.49-10.2s13.23-4.92,19.35-8.36,13.59-5.26,19.27-9.6c2-2,3.04-5.87,4.04-8.87,0-7-8.88-11.63-14.88-13.63-1,0-1.64-.3-2.64-.3-7.52-3.01-13.69-9.81-21.34-11.69s-16.16.43-24.14-1.07c-6-1-11.23-1.98-16.23,3.02-1,1-1.96,2.98-2.96,3.98-6.49,7.49-13.46,13.9-20.7,19.77-7.26,5.88-14.33,12.46-22.84,17.47-6.05,3.53-13.44,4.13-19.61,7.03s-12.38,5.39-18.82,8.36c-10,5-18.87,12.23-23.87,23.23-2,3,2.3,7.32,3.3,10.32,0,3,.49,5.84,1.49,8.84,2,6,.22,11.05-4.78,14.05-6,4-11.64,7.63-17.64,10.63-7.98,2.99-16.43,4.81-24.38,7.88s-14.61,9.35-22.46,12.64-16.29,5.16-23.97,8.83c-6.8,3.53-14.11,6.1-20.06,10.63s-11.16,10.23-16.6,15.51c-5.36,5.2-11.79,9.56-16.94,15.17s-7.33,13.52-12.47,19.15c-2,3-5.94,4.27-8.94,7.27-1,1,.31,4.79-.69,6.79-1,1-5.5.35-6.5,2.35-5.48,7.98-9.05,16.75-13.79,24.72s-8.23,16.44-11.74,25.47c-2.38,6.45-6.78,12.36-7.81,19.19s1.63,13.74,1.84,20.69-2.15,13.88-.85,20.73c0,2,1.52,3.81,1.52,5.81s-.48,4.32-.48,6.32c1.48,8.4,7.04,15.62,8.89,23.4s-.59,16.55,1.44,24.64c0,8.03-.86,14.99-2.3,22.75s2.17,16.85-.22,24.46-10.25,13.23-13.05,20.68-2.62,15.97-5.35,23.41-8.85,13.92-11.05,21.51c-1.98,6.93.29,14.67-1.08,21.35s-1.01,13.66-1.52,20.73c-1,8-1.87,15.77,3.13,22.77,7,1,13.59-1.72,19.59-5.72,4-4,6.51-9.31,10.51-14.31,4.37-5.34,7.26-11.01,10.33-16.71,3.25-6.03,6.31-11.68,8.37-17.85,2.77-7.13,7.14-13.59,9.8-20.62s4.47-14.57,7.31-21.55,8.26-12.88,11.53-19.71,7.28-12.99,11.21-19.54,5.19-14.54,9.92-20.65c4.97-5.96,8.79-12.54,13.27-18.63s11.37-10.76,15.39-17.3c3-7,3.7-13.79,5.7-20.79,1-6-.25-11.88,1.75-16.88,2.99-5.98,7.4-11.73,11.76-16.09s10.81-7.19,16.33-10.7c11-6,24.59-2.83,35.59-7.83,4-2,10.07-4.98,13.07-8.98,5-10,4.67-21.37,10.67-30.37,4-5,7.95-8.98,12.95-12.98,1-1,2.93.97,3.93-.03,9-8,18.26-16.78,30.26-17.78,7.28,0,14.7-.32,22.08-.41s14.67,1.32,22.02,1.19c7.34-.12,14.71,1.29,22.02,1.2,7.38-.09,14.71.68,21.99.68s14.91-.06,20.69,4.11c5.7,4.12,11.47,9.53,15.94,14.99,4,6,7.67,14.39,4.67,21.39-9,6-23.15,2.3-34.15,2.3-6-1-10.83-4.38-16.83-5.38-7.22-1.24-15.06-.58-22.61-.73s-14.98,1.22-22.24,2.63-14.76,3.14-21.3,6.68-13.21,7.57-18.19,13.55c-3,5-2.65,12.01-5.65,18.01-3.46,5.93-10.94,9.05-14.51,14.37s-4.3,13.45-9.36,18c-9,8-17.55,15.15-25.55,23.15-5.52,6.52-11.72,11.59-16.36,18.24s-11.87,11.27-16.86,18.25c-4,5-6.26,11.22-12.26,13.22-1,0-.95,1.94-1.95,1.94-8,3-17.54,1.62-23.54,8.62-3,3-4.11,7.84-4.11,11.84,1,3,1.17,10.27,5.17,10.27,9,0,16.58-1.52,25.58.48,6.51.5,11.4-6.17,16.53-9.42s12.77-4.2,16.77-8.69c4.53-6.04,5.29-14.61,9.06-21.02s10.33-10.16,15.8-15.62c8-7,17.58-12.6,25.58-20.6,5.03-5.53,8.85-12.24,13.62-18.02,4.72-5.72,10.61-10.79,14.58-17.25,4.42-6.38,9.04-12.33,14.78-17.3s11.57-10.11,19.71-10.62c7-1,11.65,5.44,13.65,13.44,0,1,2.4,1.13,2.4,2.13,4,11,11.99,20.33,16.99,31.33,2.43,5.84,5.35,12.2,5.21,18.06-.15,6.19-3.63,11.82-9.28,15.93-7.42,6.93-12.84,15.09-18.43,23-5.7,8.07-10.9,16.18-14.94,25.27-4,11-6.97,22.92-1.97,33.92s13.58,19.07,22.58,26.07c1,1,4.5-2.52,5.5-1.52,3,2,4.65,5.92,7.65,8.92,4,4,9.32,3.92,15.32,2.92,8-2,12.46-8.82,19.46-13.82,2-1,4.96-.4,6.96-1.4,10-3,20.29-1.43,29.29-5.43,11-5,21.49-14.64,22.49-26.64.75-8-2.9-16-4.07-23.67s-3.9-15.03-6.36-22.53c-2.44-7.41-2.97-15.62-6.01-22.89s-6.43-14.4-9.41-21.61c-3.51-7.52-6.23-15.51-10.49-22.4s-11.67-11.79-16.16-18.78c-5-9-7.66-20.28,3.34-27.28,4-3,8.28-5.44,13.28-5.44,6,0,10.82,5.66,15.82,9.66,5.51,5.51,10.89,10.76,15.15,17.28s6.84,13.47,9.33,20.95c1.99,6.98,2.4,13.71,3.27,20.69s4.15,13.7,5.65,20.72c2.49,7.97,6.42,15.39,8.91,23.23s3.84,16.06,7.35,23.59c4.03,7.56,9.74,14.02,14.28,21.33s7.04,15.7,12.99,22.15c6.29,6.29,13.83,10.67,20.86,15.57,7.13,4.98,12.75,12.46,20.33,16.75s17.49,4.08,25.14,8.4c6.99,3.49,13.29,8.1,20.66,10.72s14.83,4.36,22.34,6.36c7.4-.67,14.85,2.43,22.39,2.36s15.04-3.11,22.52-2.29c7.42.82,14.13,5.05,21.41,7.03,7.03,2.01,13.64,4.54,20.45,6.93,6.83,2.39,13.53,4.47,20.13,7.55s13.08,5.43,19.34,9.39c4,3,10.14,4.84,12.14,9.84,3,10-5.52,19.02-13.52,23.02-2,1-5.34,1.56-7.34,2.56-10,4-20.66,5.03-31.66,4.03-4-1-7.59,1.16-11.59.16s-6.88-8.51-10.88-9.51c-8.53-1-17.58,1.53-25.61-.86s-15.4-6.63-23.88-8.12c-8.02-1-15-5.49-22.64-8s-15.07-5.02-22.55-8.01c-7.99-3.49-16.87-4.87-24.53-8.91-7.7-4.06-14.79-9.25-22.5-13.2-7.73-3.96-14.69-10.02-22.79-13.2-7.99-3.14-17.15-3.89-25.84-5.63-8.43-.99-17.59,1.77-25.06,5.94-7.59,4.24-14.17,10.78-15.69,19.86,1.21,7.46,6.58,13.34,10.25,19.87,3.65,6.49,7.55,12.2,13.03,17.39s9.92,11.58,16.56,15.06,14.24,4.81,21.55,6.26c7.37,1.46,14.49,1.8,21.92.79,5-5,12.31-6.14,18.31-6.14,7.08,0,14.4,2.88,21.73,3.53,7.17.63,13.78,3.27,20.71,5.74,7.41,2.97,15.18,4.89,22.53,7.8,7.43,2.94,15.28,4.59,22.78,7.1,7.56,2.53,14.83,5.96,22.58,7.66s15.87.32,23.9.82c5.99,1,12,6.37,18.24,6.37s12.61-1.01,18.62-1.01c7.01-.5,13.84-4.35,20.85-4.97,7-.61,14.25,1.33,21.25.65s13.54-5.83,20.53-6.56,14.23.68,21.22-.07c8.13-.51,15.84-3.08,23.97-4.75s16.13-1.79,24-4.74c6.96-2.98,14.51-5.35,20.73-9.43,6.3-4.14,10.52-10.11,13.54-17.65,2-6,4.73-14.97.73-19.97,0-1-2.39.27-2.39-.73s-1.07-1-1.07-2,.03-1.23.03-2.23c-3.98-6.97-11.49-11.06-16.72-16.91s-8.52-13.37-11.53-20.9c0-8.17,5.79-11.43,12.62-14.54s13.84-5.39,20.2-5.88c7.57-.4,14.8-4.39,22.29-5.06,7.54-.68,15.7,4.24,23.15,3.2s14.2-6.71,21.6-8.2c7.38-1.49,15.55.21,22.85-1.8s13.58-6.97,20.73-9.55c7.36-3.01,15-4.77,21.99-7.97,7.07-3.24,12.98-9.22,20.29-12.1s14.98-4.3,22.82-6.26c2,0,2.79-.4,4.79,1.6-5,10-14.23,15.46-23.23,21.46-8,4-13.14,12.82-21.14,16.82-10,4-22.31,2.77-33.31,3.77-2,0-3.14,1.64-5.14,2.64-7.66,1.73-15.3,1.95-22.78,3.22s-14.61,6.33-22.2,7.47-15.84-1.88-23.5-.58-14.89,3.65-22.55,5.38c-1,0-.71,5.81-1.71,5.81s.34-.36-.66-.36c-2,2-7.96,2.52-6.96,5.52,2,6,9.57,7.92,14.57,11.92,2,1,5.68,1.52,7.68,2.52,7.35,2.5,14.95,4.69,22.42,5.73s15.31-2.72,22.94-3c7.59-.29,15.71,3.76,23.26,2.33,7.45-1.41,13.81-7.53,21.13-9.87,7.23-2.31,15.6-1.73,22.63-4.78s12.07-10.03,18.79-13.64c7.6-4.05,15.64-6.37,22.35-11.32s12.07-11.04,18.98-16.47c9-8,17.6-14.36,25.6-23.36,4.52-6.02,8.05-12.55,11.94-18.7s6.11-12.72,8.1-20.2c0-1,2.47-1.71,2.47-2.71,0-4-.03-7.3.97-10.3,1-9,1.55-17.45-5.45-24.45-1-1,.18-4.33-.82-5.33-6-5-13.37-6.22-21.37-7.22-1.11-.47-.55-1.1-.55-1.1ZM193.28,1097.35c-8.06,3.53-15.55,9.28-22.85,14.58s-11.34,14.35-18.29,19.81c-4.42,4.42-12.39,5.27-16.34,9.93s-5.42,11.58-7.96,17.17c-3,6-5.61,10.88-4.61,17.88,1,5,7.49,8.65,8.49,13.65,0,3-2.75,5.05-3.75,8.05-2,3-1.87,7.89-4.87,9.89-9,5-22.78,9.71-30.78.71-5-8-13.14-16.72-11.14-26.72,3-11,6.84-19.91,13.84-29.91,1-1-.35-3.17.65-4.17,3.66-6.99,6.46-14.44,10.79-20.69s10.81-11.24,15.89-17.13,9.74-11.85,15.33-17.44c4.55-4.04,9.73-7.48,14.79-11.01s10.53-6.04,15.97-9.01c9.05-4.52,14.42-13.05,21.2-20.22,6.71-7.1,14.63-13.21,20.6-21.16,5.41-6.4,12.6-10.93,19.71-15.04s14.6-7.77,23.24-6.76c8.08,3.54,13.15,10.08,13.72,17.67s-2.1,16.51-5.56,22.95c-.66.9-1.03.44-1.74,1.3-5.24,7.86-14.59,11.07-21.38,16.71s-12.7,12.98-20.48,17.62-16.46,6.49-24.18,11.19c-1.15.33-.28.17-.28.17Z"/>
  </g>
  <g class="cls-3">
    <path class="cls-1" d="M1027.24,997.55c4,2,8,2,11,5,2,2,6,0,8,1,5,3,2,10,0,14-3,6-7,12-12,17-1,1-3,1-4,2-5,6-12,11-19,14-27,10-49,26-73,44-11,8-21,18-23,32-1,6,5,12,11,11,15-3,25-13,37-22,10-6,20-10,30-15,8-5,14-11,22-17,9-7,20-9,30-14,4-3,8-5,12-8,10-6,22-7,33-7,5,10,7,22,13,32,3,6,11,9,19,10,16,1,31,6,47,4,10,0,19-5,25-13,12,0,10-15,9-23-3-16-17-29-33-31-9-2-19-1-28-3-1-1-3-2-5-3-1,0-2-1-2-2-3-10-3-20-9-28-1,0-3,0-4-1-3-5-4-10-9-12-10-4-20-6-30-8s-22,1-30-6c-6-4,2-11,7-13,5-1,8-4,13-5,22-3,44-3,66,0,12,7,22,20,23,35-3,6-6,14-1,20,16,16,37,22,59,27,2,1,5,2,7,3,12,10,22,27,15,42-3,5-7,8-11,12-15,10-34,12-42,29l-3,3c-1,4-5,9,0,14,11-1,20-7,31-7,9-1,16-5,23-11,12-11,20-24,32-35,12-10,27-17,42-22,10,3,23,8,27,19,9,3,19,2,28,3,7,0,15-3,20-10,6-7,18-7,22-16,4-10,8-25-3-32-11-8-18,6-20,15-13,10-30,4-43-2-6,1-11-3-16-4,3-3,7-4,11-6,2-2,4-4,5-7,7-10,21-7,31-11,3-2,7-3,8-6,2-7-6-13-12-16-13-4-25-9-39-11-5,0-10-2-15-1-7,1-13,3-20,5-3,1-6,3-7,7-1,10,5,17,7,27,0,2,1,5,0,7-9,9-24,8-35,4-9-4-17-12-21-22-2-7-4-15-11-19-8-4-15-8-22-13-4-3-8-2-12-5-3-2-5-6-4-10,0-2,2-4,4-4,21-3,41-2,62-2,11,0,22,5,33,6,13,2,25,3,38,6,13,4,26,11,40,5,3,6,10,3,14,0s4-8,3-12c-3-7-7-13-9-21-2-12-3-25,6-34,1,0,4,2,5,3,4,4,7,7,12,9,12,4,26,8,30,21,4,14,11,25,17,37-1,11,1,22-5,32-2,3-5,7-5,11,3,14-1,29-9,40-8,9-15,17-23,25-5,5-12,7-18,10-8,3-17,5-25,5-9,1-17-1-26,1-17,3-32,12-43,26-8,11-9,24-8,37,0,3,3,4,5,6h3c3,3,7,3,11,4,1,1,2,2,3,2,2,0,5,1,7,0,15-6,31-15,48-12,9,1,17,1,26,2,7,1,12,4,19,6,4,1,8-1,12-3,13-7,24-16,36-25l9-9v-4c6-4,15-4,19,3,1,2,2,3,3,5,3,10-4,20-13,25-5,2-11,2-16,5-9,6-15,12-22,20-4,6-7,13-6,21,1,5,4,9,6,14,3,12,8,22,12,34,4,11,8,22,15,33s15,21,21,32c3,6,2,13,4,19,4,9,10,15,16,22,5,5,12,7,17,11,8,8,15,16,24,23,12,7,27,12,39,6s4-21-3-29c-4-5-8-9-11-14-2-3-2-5,1-7-3-5-7-9-10-14-5-10-5-22-3-33,2-13,5-26,4-40,7-16,11-32,15-49,2-6,6-11,7-17,4-13,1-29-13-35-7-2-14,1-21,0-20-5-29-27-29-46,5-12,17-20,30-22,17-3,33,8,43,21,15,21,18,46,20,70,1,12-1,24-2,36-3,17-7,33-13,49-2,5-6,9-7,14-7,18-8,39,2,56,11,9,23,20,25,35,2,18,4,35,10,51,5,12-10,21-20,23-16-5-32-8-48-11-5-6-12-9-18-13-8-5-16-5-23-11-16-16-30-31-49-44-6-3-12-4-18-3-4,2-9,5-9,10s-3,17,5,17c0,6-1,12,1,17,6,13,21,25,18,40-9,1-19,0-27-6-12-9-14-24-14-38-1-8,0-16,2-24,3-23,5-46,2-69-1-2-2-4-3-7-1-2-3-4-4-7-5-20-9-39-12-60-2-9-1-17-4-26-4-12-13-19-22-27-5-4-12-6-18-2-4,10-7,20-6,31,2,23,8,44,13,67,2,10,5,19,10,28,1,1,3,2,4,3,5,10,11,19,12,30,0,10,2,21,3,31s0,19-2,29c0,3,0,8-4,10-12,7-29,1-34-12-1-3-2-6-4-9-3-6-5-12-7-18-6-20-8-39-14-59-1-3-5-3-8-4-3,8-7,15-6,24,2,10,7,18,9,27,2,16,8,31,15,45,6,9,13,17,19,26,2,4,3,9,2,14-3,9-4,18-3,27,2,13,2,25,9,37,5,6,9,12,15,17,1,1,1,3,2,4,8,9,16,16,25,24,11,9,26,17,40,11,3-7-1-14-1-21l1-1c1,0,2,1,3,2,8,11,17,19,27,28,4,3,10,5,14,8,16,15,31,28,49,38,10,6,22,13,33,8,0-3-2-7-4-9-12-11-26-20-41-27-15-9-28-20-43-29-4-2-4-6-4-10-1-1-2-3-4-4-15-7-26-20-31-35-3-9-1-18,4-26,0-1,4,0,6,0,12,5,25,6,37,0,11-5,24-5,36-3,8,2,16-1,24,2,7,4,14,7,21,11,5,3,9,7,14,11,2,1,4-1,6,0,5,5,10,9,14,15,2,4,0,8-1,11-4,7-6,15-13,17-13,4-27,3-40,3-12-1-30-7-36,7-2,6,1,13,5,18,17,16,36,30,59,36,5,1,7-5,10-8,1,0,3,1,5,1-1-1-2-3-1-4,18-8,37-9,56-13,7-2,15,1,22,1,19,0,40-2,53-17-1-8-9-15-5-23,1-2,4-3,6-4,23-7,46-8,69-9,10,0,20-3,31-5,12-2,24,0,36-4,7-3,12-9,19-13,16-8,31-14,46-24,8-6,16-9,24-15,16-13,31-26,44-43,5-7,8-14,11-22,5-13,10-26,14-39,1-4-1-9-2-13-1-10,2-19,4-29v-5c4-12,5-24,8-36,2-4,3-8,6-12,23-27,37-58,53-89,9-20,18-40,19-62,0-2-1-5-4-5-10,2-18,11-25,18-10,11-17,23-27,34-3,3-7,6-8,9-10,18-20,34-32,51-2,3-2,5-4,8-4,5-7,10-12,14-17,14-32,27-48,42-14,14-28,28-38,46-5,9-16,14-26,19-3,1-5,3-7,5-9,6-19,6-30,4-5-2-11-2-16,0-14,8-27,18-39,29-15,15-38,17-58,11-14-5-27-8-41-13s-28-12-43-17c-13-11-20-27-18-44,1-4,4-7,8-7,14,2,26,9,37,17,24,16,50,20,76,20,6,0,10-5,15-8,9-7,15-14,24-21,11-7,19-17,31-22h4c8-4,16-6,24-10,17-7,31-20,46-33,10-8,23-11,35-15,8-2,14-11,18-19-14-3-27-10-42-8-5,1-10,3-14,6-8,7-16,12-22,20-4,4-9,8-14,12-10,6-19,11-30,14-7,3-13,7-19,11-2,0-4,0-6,1-7,4-12,12-19,16-9,5-16,11-25,15-9,3-22,10-28-1-10-20-4-42-3-63,1-6,3-12,7-16,11-8,22-14,33-22,4-2,8-4,13-6,4-2,7-5,9-8,6-11,9-22,14-33,2-5,3-11-2-15-4-15-9-28-17-41-4-6-10-10-17-8-10,4-19,14-31,11-7-6-17-11-26-6-11,6-21,16-23,29-1,3-1,7-1,10-8,30-6,60-10,90,0,4-2,8-3,12v5c2,7,5,13,7,20,1,6-1,12-3,17-7,11-25,16-34,6-8-11-8-24-9-37,0-2-1-5-2-7v-11c5-22,10-41,19-61,4-10,2-21,2-32,0-3-2-6-2-9,0-5-1-9-1-14-3-15-4-29-9-43-3-9-7-18-13-27-9-14-21-24-31-38-7-8-14-15-22-22-9-6-17-13-29-14-3,0-4-5-7-7h-5c-16-8-30-16-46-25-5-3-8-8-12-13-1-1-3-1-4-2-9-11-19-21-29-31-3-3-6-7-5-11,6-11,20-15,32-14,11,2,21,4,30,10,17,14,34,24,53,35,10,6,19,14,29,22,8,7,15,13,22,21,2,3,4,6,6,8,18,16,31,34,48,51,2,2,4,3,6,5,1,2,2,4,3,5,8,7,18,10,29,9,9-1,20-3,22-14,3-14-2-27-5-41-2-11-6-20-13-29-6-6-15-9-23-14-2-1-2-4-4-5s-5-2-7-2c-13,1-25-2-37-8-10-6-17-13-27-20-11-8-22-15-32-24-6-6-11-12-18-16-15-8-31-14-46-22-10-5-21-3-32-6-8-3-16-7-24-11-4-2-9-2-13-1-14,0-26-4-38-9-18-7-37-3-56-3-5,1-9-1-14,0-10,2-20,3-29,8-1,8-7,16-5,24,3,13,11,24,20,35,2,4,6,7,4,11-5,12-21,10-32,8-19-2-38-5-57-7-54-2-104,10-158,21-4,0-11,2-11-4,5-4,10-7,15-10,7-3,14-5,21-8,8-3,16-2,24-4,6-2,13-3,19-3,17-1,34-2,51-2,10,1,19-3,29-2,12,0,24,0,37,2,6,1,13,3,19,3,3-1,6-4,8-7,1-2,0-4-2-6-19-13-39-23-61-27-30,1-59-1-89,7-32,9-61,19-89,35-11,10-24,18-36,28-10,9-19,19-22,32-1,9,0,19,8,25,6,3,13,5,20,4h0ZM1819.24,1459.55c9-1,19-1,28-4s17-8,26-12c4-1,8-3,12-4,17-5,27-20,32-36-3-8-4-17,3-24s17-9,27-8c7,1,12,7,13,14,0,4,1,8,2,12,0,2-1,4-1,6-10,19-24,34-40,48-2,1-5,3-7,5-14,8-28,14-41,24-16,11-34,8-51,13-15,9-29,18-44,27-13,8-29,7-43,7-3-1-7-2-10-4-11-11-5-28,6-36,2-1,3-1,5-1,12-6,23-9,36-12,7-2,12-7,19-10,9-3,19-2,29-4l-1-1h0Z"/>
  </g>
</svg>